<svg width="346" height="2070" viewBox="0 0 346 2070" fill="none" xmlns="http://www.w3.org/2000/svg">
<g clip-path="url(#clip0_329_360)">
<path d="M343.97 204.4C344.7 206.722 345.138 211.09 345.138 216.116C345.138 221.141 344.7 225.509 343.97 227.831C338.043 246.589 321.385 259.196 302.463 259.298H302.23C298.857 259.298 295.441 258.903 292.083 258.115C280.199 255.295 270.023 247.363 264.168 236.377C260.796 230.052 259.058 223.098 259.014 216.116C258.985 211.017 259.861 205.904 261.657 201.04L261.701 200.938C266.343 188.404 277.468 178.236 290.754 174.394C293.411 173.635 297.426 173.167 301.748 173.123H302.23L302.463 173.109C306.464 173.109 310.201 173.474 312.742 174.117C327.736 178.061 339.123 189.105 343.97 204.4Z" fill="white"/>
<path d="M343.97 549.156C344.7 551.479 345.138 555.847 345.138 560.872C345.138 565.897 344.7 570.265 343.97 572.588C338.043 591.345 321.385 603.952 302.463 604.054H302.23C298.857 604.054 295.441 603.66 292.083 602.871C280.199 600.052 270.023 592.119 264.168 581.134C260.796 574.808 259.058 567.855 259.014 560.872C258.985 555.774 259.861 550.661 261.657 545.796L261.701 545.694C266.343 533.16 277.468 522.993 290.754 519.151C293.411 518.391 297.426 517.924 301.748 517.88H302.23L302.463 517.865C306.464 517.865 310.201 518.23 312.742 518.873C327.736 522.817 339.123 533.861 343.97 549.156Z" fill="white"/>
<path d="M343.97 1066.29C344.7 1068.61 345.138 1072.98 345.138 1078.01C345.138 1083.03 344.7 1087.4 343.97 1089.72C338.043 1108.48 321.385 1121.09 302.449 1121.19H301.748C298.536 1121.15 295.28 1120.75 292.083 1120.01C280.199 1117.19 270.023 1109.25 264.168 1098.27C260.796 1091.94 259.058 1084.99 259.014 1078.01C258.985 1072.91 259.861 1067.8 261.657 1062.93L261.701 1062.83C266.343 1050.29 277.468 1040.13 290.754 1036.29C293.411 1035.53 297.426 1035.06 301.748 1035.01H302.23L302.463 1035C306.464 1035 310.201 1035.37 312.742 1036.01C327.736 1039.95 339.123 1051 343.97 1066.29Z" fill="white"/>
<path d="M343.97 1411.05C344.7 1413.37 345.138 1417.75 345.138 1422.76C345.138 1427.77 344.7 1432.16 343.97 1434.48C338.028 1453.29 321.253 1465.95 302.23 1465.95H301.879C298.624 1465.92 295.324 1465.52 292.083 1464.76C280.199 1461.93 270.023 1454.01 264.168 1443.03C260.796 1436.7 259.058 1429.73 259.014 1422.76C258.985 1417.62 259.876 1412.48 261.701 1407.59C266.343 1395.05 277.468 1384.88 290.754 1381.04C293.411 1380.28 297.412 1379.81 301.748 1379.76H302.449C306.449 1379.76 310.201 1380.12 312.742 1380.76C327.735 1384.71 339.123 1395.75 343.97 1411.05Z" fill="white"/>
<path d="M302.23 259.298H301.748C297.426 259.356 293.411 259.824 290.754 260.583C277.469 264.425 266.344 274.593 261.701 287.127L261.657 287.229C259.861 292.093 258.985 297.206 259.014 302.305H259C259 297.279 258.562 292.912 257.832 290.589C252.985 275.294 241.597 264.25 226.603 260.306C224.063 259.663 220.325 259.298 216.325 259.298C235.246 259.196 251.904 246.589 257.832 227.831C258.562 225.509 259 221.126 259 216.116H259.014C259.058 223.098 260.796 230.052 264.168 236.377C270.023 247.363 280.199 255.295 292.083 258.115C295.441 258.903 298.857 259.298 302.23 259.298Z" fill="white"/>
<path d="M302.23 517.865H301.748C297.426 517.924 293.411 518.391 290.754 519.151C277.469 522.993 266.344 533.16 261.701 545.694L261.657 545.796C259.861 550.661 258.985 555.774 259.014 560.872H259C259 555.847 258.562 551.479 257.832 549.156C252.985 533.861 241.597 522.817 226.603 518.873C224.063 518.23 220.325 517.865 216.325 517.865C235.246 517.763 251.904 505.156 257.832 486.399C258.562 484.076 259 479.694 259 474.683H259.014C259.058 481.666 260.796 488.619 264.168 494.945C270.023 505.93 280.199 513.862 292.083 516.682C295.441 517.471 298.857 517.865 302.23 517.865Z" fill="white"/>
<path d="M301.879 1465.95C297.543 1465.99 293.543 1466.46 290.871 1467.23C277.6 1471.07 266.475 1481.24 261.832 1493.77C260.007 1498.67 259.117 1503.81 259.146 1508.95H259.131C259.131 1503.94 258.693 1499.56 257.963 1497.24C253.101 1481.94 241.728 1470.9 226.734 1466.95C224.194 1466.31 220.427 1465.95 216.441 1465.95H216.091C235.115 1465.95 251.89 1453.29 257.832 1434.48C258.562 1432.16 259 1427.79 259 1422.76H259.014C259.058 1429.73 260.796 1436.7 264.168 1443.03C270.023 1454.01 280.199 1461.93 292.083 1464.76C295.324 1465.52 298.624 1465.92 301.879 1465.95Z" fill="white"/>
<path d="M301.748 1121.19C297.412 1121.25 293.411 1121.71 290.754 1122.47C277.468 1126.32 266.343 1136.48 261.701 1149.02C259.876 1153.91 258.985 1159.05 259.014 1164.2H259C259 1159.19 258.562 1154.8 257.832 1152.48C252.985 1137.19 241.597 1126.14 226.603 1122.2C224.063 1121.55 220.31 1121.19 216.31 1121.19C235.246 1121.09 251.904 1108.48 257.832 1089.72C258.562 1087.4 259 1083.03 259 1078.01H259.014C259.058 1084.99 260.796 1091.94 264.168 1098.27C270.023 1109.25 280.199 1117.19 292.083 1120.01C295.28 1120.75 298.536 1121.15 301.748 1121.19Z" fill="white"/>
<path d="M257.963 1497.24C258.693 1499.56 259.131 1503.94 259.131 1508.95C259.131 1513.96 258.693 1518.36 257.963 1520.67C252.036 1539.41 235.378 1552.03 216.442 1552.13H215.741C212.529 1552.09 209.273 1551.7 206.076 1550.95C194.192 1548.12 184.016 1540.2 178.161 1529.21C174.788 1522.89 173.051 1515.92 173.007 1508.95C172.978 1503.81 173.869 1498.67 175.694 1493.77C180.336 1481.24 191.461 1471.07 204.733 1467.23C207.404 1466.46 211.405 1465.99 215.741 1465.95H216.442C220.427 1465.95 224.194 1466.31 226.734 1466.95C241.728 1470.9 253.102 1481.94 257.963 1497.24Z" fill="white"/>
<path d="M257.963 1669.61C258.693 1671.94 259.131 1676.32 259.131 1681.33C259.131 1686.34 258.693 1690.74 257.963 1693.05C252.036 1711.79 235.378 1724.41 216.442 1724.51H215.741C212.529 1724.47 209.273 1724.07 206.076 1723.33C194.192 1720.5 184.016 1712.58 178.161 1701.59C174.788 1695.27 173.051 1688.3 173.007 1681.33C172.978 1676.19 173.869 1671.05 175.694 1666.15C180.336 1653.62 191.461 1643.45 204.733 1639.61C207.404 1638.84 211.405 1638.37 215.741 1638.32H216.442C220.442 1638.32 224.194 1638.69 226.734 1639.33C241.728 1643.28 253.102 1654.32 257.963 1669.61Z" fill="white"/>
<path d="M257.963 1841.99C258.693 1844.32 259.131 1848.7 259.131 1853.71C259.131 1858.72 258.693 1863.12 257.963 1865.42C252.036 1884.17 235.378 1896.79 216.442 1896.89H215.741C212.529 1896.85 209.273 1896.45 206.076 1895.71C194.192 1892.87 184.016 1884.96 178.161 1873.97C174.788 1867.65 173.051 1860.68 173.007 1853.71C172.978 1848.57 173.869 1843.42 175.694 1838.53C180.336 1826 191.461 1815.83 204.733 1811.99C207.404 1811.21 211.405 1810.75 215.741 1810.7H216.442C220.442 1810.7 224.194 1811.07 226.734 1811.71C241.728 1815.65 253.102 1826.7 257.963 1841.99Z" fill="white"/>
<path d="M257.832 118.211C258.562 120.533 259 124.901 259 129.926C259 134.952 258.562 139.32 257.832 141.642C251.904 160.399 235.246 173.006 216.325 173.109H216.091C212.719 173.109 209.302 172.714 205.944 171.925C194.06 169.106 183.884 161.174 178.029 150.188C175.037 144.579 173.343 138.458 172.963 132.293C172.963 132.278 172.949 132.278 172.963 132.264C172.978 131.504 172.993 130.73 172.993 129.926C172.993 129.006 172.978 128.1 172.949 127.239V127.18C173.197 122.958 174.058 118.766 175.562 114.748C180.205 102.214 191.33 92.0471 204.616 88.2051C207.273 87.4455 211.273 86.978 215.609 86.9196H216.325C220.31 86.9196 224.063 87.2848 226.603 87.9275C241.597 91.8718 252.985 102.916 257.832 118.211Z" fill="white"/>
<path d="M257.832 290.589C258.562 292.912 259 297.28 259 302.305C259 307.33 258.562 311.698 257.832 314.021C251.904 332.778 235.246 345.385 216.325 345.487H216.091C212.719 345.487 209.302 345.093 205.944 344.304C194.06 341.484 183.884 333.552 178.029 322.567C175.037 316.957 173.343 310.851 172.963 304.671C172.963 304.671 172.949 304.657 172.963 304.642C172.978 303.882 172.993 303.108 172.993 302.305C172.993 301.384 172.978 300.493 172.949 299.631V299.558C173.182 295.38 174.044 291.217 175.518 287.229L175.562 287.127C180.205 274.593 191.33 264.425 204.616 260.583C207.273 259.824 211.288 259.356 215.609 259.312H216.091L216.325 259.298C220.325 259.298 224.063 259.663 226.603 260.306C241.597 264.25 252.985 275.294 257.832 290.589Z" fill="white"/>
<path d="M257.832 462.967C258.562 465.29 259 469.658 259 474.683C259 479.708 258.562 484.076 257.832 486.399C251.904 505.156 235.246 517.763 216.325 517.865H216.091C212.719 517.865 209.302 517.471 205.944 516.682C194.06 513.863 183.884 505.93 178.029 494.945C175.037 489.335 173.343 483.229 172.963 477.05C172.963 477.05 172.949 477.035 172.963 477.02C172.978 476.261 172.993 475.486 172.993 474.683C172.993 473.763 172.978 472.872 172.949 472.01V471.937C173.182 467.759 174.044 463.595 175.518 459.607L175.562 459.505C180.205 446.971 191.33 436.804 204.616 432.962C207.273 432.202 211.288 431.735 215.609 431.691H216.091L216.325 431.676C220.325 431.676 224.063 432.041 226.603 432.684C241.597 436.628 252.985 447.672 257.832 462.967Z" fill="white"/>
<path d="M257.832 807.724C258.562 810.046 259 814.414 259 819.44C259 824.465 258.562 828.833 257.832 831.156C251.904 849.913 235.246 862.52 216.325 862.622H216.091C212.719 862.622 209.302 862.227 205.944 861.439C194.06 858.619 183.884 850.687 178.029 839.701C175.037 834.092 173.343 827.985 172.963 821.806C172.963 821.806 172.949 821.792 172.963 821.777C172.978 821.017 172.993 820.243 172.993 819.44C172.993 818.519 172.978 817.628 172.949 816.766V816.693C173.182 812.515 174.044 808.352 175.518 804.364L175.562 804.262C180.205 791.728 191.33 781.56 204.616 777.718C207.273 776.959 211.288 776.491 215.609 776.447H216.091L216.325 776.433C220.325 776.433 224.063 776.798 226.603 777.441C241.597 781.385 252.985 792.429 257.832 807.724Z" fill="white"/>
<path d="M257.832 1152.48C258.562 1154.8 259 1159.19 259 1164.2C259 1169.21 258.562 1173.59 257.832 1175.91C251.904 1194.67 235.246 1207.28 216.31 1207.38H215.609C212.397 1207.33 209.142 1206.94 205.944 1206.2C194.06 1203.38 183.884 1195.44 178.029 1184.46C175.037 1178.85 173.343 1172.73 172.963 1166.56C172.963 1166.55 172.949 1166.55 172.963 1166.53C172.978 1165.77 172.993 1165 172.993 1164.2C172.993 1163.28 172.978 1162.37 172.949 1161.51V1161.45C173.197 1157.23 174.058 1153.04 175.562 1149.02C180.205 1136.48 191.33 1126.32 204.616 1122.47C207.273 1121.72 211.273 1121.25 215.609 1121.19H216.31C220.31 1121.19 224.063 1121.55 226.603 1122.2C241.597 1126.14 252.985 1137.19 257.832 1152.48Z" fill="white"/>
<path d="M216.091 173.109H215.609C211.288 173.167 207.273 173.635 204.616 174.394C191.33 178.236 180.205 188.404 175.562 200.938L175.518 201.04C174.044 205.028 173.182 209.191 172.949 213.369C172.817 209.527 172.423 206.284 171.825 204.4C166.963 189.105 155.59 178.061 140.596 174.117C138.055 173.474 134.303 173.109 130.317 173.109C149.224 173.006 165.897 160.399 171.825 141.642C172.438 139.699 172.847 136.296 172.963 132.293C173.343 138.458 175.036 144.579 178.029 150.188C183.884 161.174 194.06 169.106 205.944 171.925C209.302 172.714 212.718 173.109 216.091 173.109Z" fill="white"/>
<path d="M216.091 862.622H215.609C211.288 862.68 207.273 863.148 204.616 863.907C191.33 867.749 180.205 877.917 175.562 890.45L175.518 890.553C174.044 894.541 173.182 898.704 172.949 902.882C172.817 899.04 172.423 895.797 171.825 893.913C166.963 878.618 155.59 867.574 140.596 863.63C138.055 862.987 134.303 862.622 130.317 862.622C149.224 862.519 165.897 849.912 171.825 831.155C172.438 829.212 172.847 825.809 172.963 821.806C173.343 827.985 175.036 834.092 178.029 839.701C183.884 850.687 194.06 858.619 205.944 861.438C209.302 862.227 212.718 862.622 216.091 862.622Z" fill="white"/>
<path d="M215.741 1638.32C211.404 1638.37 207.404 1638.84 204.732 1639.61C191.461 1643.45 180.336 1653.62 175.693 1666.15C173.868 1671.05 172.978 1676.19 173.007 1681.33H172.992C172.992 1676.32 172.554 1671.94 171.824 1669.62C166.963 1654.32 155.59 1643.28 140.596 1639.33C138.055 1638.69 134.303 1638.32 130.303 1638.32C149.239 1638.22 165.897 1625.6 171.824 1606.86C172.554 1604.55 172.992 1600.17 172.992 1595.14H173.007C173.051 1602.11 174.788 1609.08 178.161 1615.4C184.015 1626.39 194.191 1634.31 206.076 1637.14C209.273 1637.89 212.529 1638.28 215.741 1638.32Z" fill="white"/>
<path d="M215.741 1724.51C211.404 1724.56 207.404 1725.02 204.732 1725.8C191.461 1729.64 180.336 1739.81 175.693 1752.34C173.868 1757.24 172.978 1762.38 173.007 1767.52H172.992C172.992 1762.51 172.554 1758.13 171.824 1755.8C166.963 1740.51 155.59 1729.47 140.596 1725.52C138.055 1724.88 134.303 1724.51 130.303 1724.51C149.239 1724.41 165.897 1711.79 171.824 1693.05C172.554 1690.74 172.992 1686.36 172.992 1681.33H173.007C173.051 1688.3 174.788 1695.27 178.161 1701.59C184.015 1712.58 194.191 1720.5 206.076 1723.33C209.273 1724.07 212.529 1724.47 215.741 1724.51Z" fill="white"/>
<path d="M215.741 1810.7C211.404 1810.75 207.404 1811.21 204.732 1811.99C191.461 1815.83 180.336 1826 175.693 1838.53C173.868 1843.42 172.978 1848.57 173.007 1853.71H172.992C172.992 1848.7 172.554 1844.32 171.824 1841.99C166.963 1826.7 155.59 1815.65 140.596 1811.71C138.055 1811.07 134.303 1810.7 130.303 1810.7C149.239 1810.6 165.897 1797.98 171.824 1779.24C172.554 1776.93 172.992 1772.55 172.992 1767.52H173.007C173.051 1774.49 174.788 1781.46 178.161 1787.78C184.015 1798.77 194.191 1806.68 206.076 1809.52C209.273 1810.26 212.529 1810.66 215.741 1810.7Z" fill="white"/>
<path d="M215.609 86.9195C211.273 86.978 207.273 87.4454 204.616 88.2051C191.33 92.0471 180.205 102.214 175.562 114.748C174.058 118.766 173.197 122.958 172.949 127.18C172.817 123.338 172.423 120.095 171.824 118.211C166.963 102.916 155.59 91.8718 140.596 87.9275C138.055 87.2848 134.303 86.9195 130.303 86.9195C149.224 86.8173 165.897 74.2103 171.824 55.4532C172.438 53.5103 172.846 50.1066 172.963 46.1039C173.343 52.2686 175.036 58.3895 178.029 63.9991C183.884 74.9845 194.06 82.9169 205.944 85.7363C209.142 86.4813 212.397 86.8757 215.609 86.9195Z" fill="white"/>
<path d="M215.609 1121.19C211.273 1121.25 207.273 1121.72 204.616 1122.47C191.33 1126.32 180.205 1136.48 175.562 1149.02C174.058 1153.04 173.197 1157.23 172.949 1161.45C172.817 1157.61 172.423 1154.36 171.824 1152.48C166.963 1137.19 155.59 1126.14 140.596 1122.2C138.055 1121.55 134.303 1121.19 130.303 1121.19C149.224 1121.09 165.897 1108.48 171.824 1089.72C172.438 1087.78 172.846 1084.39 172.963 1080.37C173.343 1086.55 175.036 1092.66 178.029 1098.27C183.884 1109.25 194.06 1117.19 205.944 1120.01C209.142 1120.75 212.397 1121.15 215.609 1121.19Z" fill="white"/>
<path d="M172.963 1252.72C172.963 1252.72 172.963 1252.72 172.963 1252.75C172.847 1256.77 172.438 1260.16 171.825 1262.1C165.897 1280.86 149.224 1293.47 130.303 1293.57H129.602C126.39 1293.52 123.134 1293.13 119.937 1292.38C108.053 1289.56 97.8768 1281.63 92.0223 1270.65C88.6498 1264.32 86.9124 1257.35 86.8686 1250.39C86.8394 1245.24 87.73 1240.1 89.555 1235.21C94.1977 1222.67 105.323 1212.51 118.594 1208.66C121.266 1207.9 125.266 1207.44 129.602 1207.38H130.303C134.303 1207.38 138.055 1207.74 140.596 1208.39C155.59 1212.33 166.963 1223.37 171.825 1238.67C172.423 1240.55 172.817 1243.8 172.949 1247.64V1247.7C172.847 1249.38 172.847 1251.06 172.963 1252.72Z" fill="white"/>
<path d="M172.963 1080.34V1080.37C172.847 1084.39 172.438 1087.78 171.825 1089.72C165.897 1108.48 149.224 1121.09 130.303 1121.19H129.602C126.39 1121.15 123.134 1120.75 119.937 1120.01C108.053 1117.19 97.8769 1109.25 92.0223 1098.27C88.6498 1091.93 86.9124 1084.98 86.8686 1078.01C86.8394 1072.89 87.7154 1067.8 89.5112 1062.93L89.555 1062.83C94.1977 1050.29 105.323 1040.13 118.594 1036.29C121.266 1035.53 125.266 1035.06 129.602 1035.01H130.084L130.318 1035C134.303 1035 138.055 1035.37 140.596 1036.01C155.59 1039.95 166.963 1051 171.825 1066.29C172.423 1068.18 172.817 1071.42 172.949 1075.26V1075.33C172.847 1077.01 172.861 1078.68 172.963 1080.34Z" fill="white"/>
<path d="M172.963 907.966V907.995C172.847 911.998 172.438 915.402 171.825 917.345C165.897 936.102 149.224 948.709 130.318 948.811H130.084C126.711 948.811 123.295 948.416 119.937 947.628C108.053 944.808 97.8769 936.876 92.0223 925.89C88.6498 919.55 86.9124 912.597 86.8686 905.629C86.8394 900.516 87.7154 895.417 89.5112 890.553L89.555 890.451C94.1977 877.917 105.323 867.749 118.594 863.907C121.266 863.148 125.266 862.68 129.602 862.636H130.084L130.318 862.622C134.303 862.622 138.055 862.987 140.596 863.63C155.59 867.574 166.963 878.618 171.825 893.913C172.423 895.797 172.817 899.04 172.949 902.882V902.955C172.847 904.635 172.861 906.301 172.963 907.966Z" fill="white"/>
<path d="M172.963 563.209V563.239C172.847 567.241 172.438 570.645 171.825 572.588C165.897 591.345 149.224 603.952 130.318 604.054H130.084C126.711 604.054 123.295 603.66 119.937 602.871C108.053 600.052 97.8769 592.119 92.0223 581.134C88.6498 574.794 86.9124 567.84 86.8686 560.872C86.8394 555.759 87.7154 550.661 89.5112 545.796L89.555 545.694C94.1977 533.16 105.323 522.993 118.594 519.151C121.266 518.391 125.266 517.924 129.602 517.88H130.084L130.318 517.865C134.303 517.865 138.055 518.23 140.596 518.873C155.59 522.817 166.963 533.861 171.825 549.156C172.423 551.041 172.817 554.284 172.949 558.126V558.199C172.847 559.879 172.861 561.544 172.963 563.209Z" fill="white"/>
<path d="M172.963 390.831V390.86C172.847 394.863 172.438 398.267 171.825 400.21C165.897 418.967 149.224 431.574 130.318 431.676H130.084C126.711 431.676 123.295 431.282 119.937 430.493C108.053 427.673 97.8769 419.741 92.0223 408.756C88.6498 402.416 86.9124 395.462 86.8686 388.494C86.8394 383.381 87.7154 378.283 89.5112 373.418L89.555 373.316C94.1977 360.782 105.323 350.614 118.594 346.772C121.266 346.013 125.266 345.545 129.602 345.502H130.084L130.318 345.487C134.303 345.487 138.055 345.852 140.596 346.495C155.59 350.439 166.963 361.483 171.825 376.778C172.423 378.662 172.817 381.905 172.949 385.747V385.821C172.847 387.5 172.861 389.166 172.963 390.831Z" fill="white"/>
<path d="M172.963 218.453V218.482C172.847 222.485 172.438 225.889 171.825 227.831C165.897 246.589 149.224 259.196 130.318 259.298H130.084C126.711 259.298 123.295 258.903 119.937 258.115C108.053 255.295 97.8769 247.363 92.0223 236.377C88.6498 230.037 86.9124 223.084 86.8686 216.116C86.8394 211.003 87.7154 205.904 89.5112 201.04L89.555 200.938C94.1977 188.404 105.323 178.236 118.594 174.394C121.266 173.635 125.266 173.167 129.602 173.123H130.084L130.318 173.109C134.303 173.109 138.055 173.474 140.596 174.117C155.59 178.061 166.963 189.105 171.825 204.4C172.423 206.284 172.817 209.527 172.949 213.369V213.442C172.847 215.122 172.861 216.788 172.963 218.453Z" fill="white"/>
<path d="M172.963 46.0747C172.963 46.0747 172.963 46.0893 172.963 46.1039C172.847 50.1066 172.438 53.5103 171.825 55.4532C165.897 74.2103 149.224 86.8173 130.303 86.9195H129.602C126.39 86.8757 123.134 86.4813 119.937 85.7363C108.053 82.9169 97.8768 74.9845 92.0223 63.9991C88.6498 57.6737 86.9124 50.7055 86.8686 43.7373C86.8394 38.5952 87.73 33.4531 89.555 28.5593C94.1977 16.0253 105.323 5.85793 118.594 2.01594C121.266 1.25631 125.266 0.788841 129.602 0.730408H130.303C134.303 0.730408 138.055 1.09562 140.596 1.73838C155.59 5.68263 166.963 16.7265 171.825 32.0214C172.423 33.9059 172.817 37.149 172.949 40.991V41.0494C172.847 42.7293 172.847 44.4093 172.963 46.0747Z" fill="white"/>
<path d="M171.825 1583.43C172.555 1585.75 172.993 1590.13 172.993 1595.14C172.993 1600.15 172.555 1604.55 171.825 1606.86C165.897 1625.6 149.239 1638.22 130.303 1638.32H129.602C126.39 1638.28 123.134 1637.89 119.937 1637.14C108.053 1634.31 97.8768 1626.39 92.0223 1615.4C88.6498 1609.06 86.9124 1602.11 86.8686 1595.14C86.8394 1590 87.73 1584.86 89.555 1579.96C94.1977 1567.43 105.323 1557.26 118.594 1553.42C121.266 1552.66 125.266 1552.18 129.602 1552.13H130.303C134.303 1552.13 138.055 1552.5 140.596 1553.14C155.59 1557.09 166.963 1568.13 171.825 1583.43Z" fill="white"/>
<path d="M171.825 1755.8C172.555 1758.13 172.993 1762.51 172.993 1767.52C172.993 1772.53 172.555 1776.93 171.825 1779.24C165.897 1797.98 149.239 1810.6 130.303 1810.7H129.602C126.39 1810.66 123.134 1810.26 119.937 1809.52C108.053 1806.68 97.8768 1798.77 92.0223 1787.78C88.6498 1781.44 86.9124 1774.49 86.8686 1767.52C86.8394 1762.38 87.73 1757.24 89.555 1752.34C94.1977 1739.81 105.323 1729.64 118.594 1725.8C121.266 1725.04 125.266 1724.56 129.602 1724.51H130.303C134.303 1724.51 138.055 1724.88 140.596 1725.52C155.59 1729.47 166.963 1740.51 171.825 1755.8Z" fill="white"/>
<path d="M171.825 1928.18C172.555 1930.5 172.993 1934.89 172.993 1939.9C172.993 1944.91 172.555 1949.31 171.825 1951.61C165.897 1970.36 149.239 1982.98 130.303 1983.08H129.602C126.39 1983.04 123.134 1982.64 119.937 1981.9C108.053 1979.06 97.8768 1971.15 92.0223 1960.16C88.6498 1953.82 86.9124 1946.87 86.8686 1939.9C86.8394 1934.76 87.73 1929.61 89.555 1924.72C94.1977 1912.19 105.323 1902.02 118.594 1898.18C121.266 1897.42 125.266 1896.93 129.602 1896.89H130.303C134.303 1896.89 138.055 1897.26 140.596 1897.9C155.59 1901.84 166.963 1912.89 171.825 1928.18Z" fill="white"/>
<path d="M130.084 431.676H129.602C125.266 431.734 121.266 432.202 118.594 432.962C105.323 436.804 94.1975 446.971 89.5548 459.505L89.511 459.607C87.7152 464.472 86.8392 469.57 86.8684 474.683H86.8538C86.8538 469.658 86.4158 465.29 85.6859 462.967C80.8241 447.672 69.4509 436.628 54.4569 432.684C51.9166 432.041 48.1644 431.676 44.1787 431.676C63.0854 431.574 79.7584 418.967 85.6859 400.21C86.4158 397.887 86.8538 393.504 86.8538 388.494H86.8684C86.9122 395.462 88.6496 402.416 92.0222 408.756C97.8767 419.741 108.053 427.673 119.937 430.493C123.295 431.282 126.711 431.676 130.084 431.676Z" fill="white"/>
<path d="M130.084 517.865H129.602C125.266 517.924 121.266 518.391 118.594 519.151C105.323 522.993 94.1975 533.16 89.5548 545.694L89.511 545.796C87.7152 550.661 86.8392 555.759 86.8684 560.872H86.8538C86.8538 555.847 86.4158 551.479 85.6859 549.156C80.8241 533.861 69.4509 522.817 54.4569 518.873C51.9166 518.23 48.1644 517.865 44.1787 517.865C63.0854 517.763 79.7584 505.156 85.6859 486.399C86.4158 484.076 86.8538 479.694 86.8538 474.683H86.8684C86.9122 481.651 88.6496 488.605 92.0222 494.945C97.8767 505.93 108.053 513.862 119.937 516.682C123.295 517.471 126.711 517.865 130.084 517.865Z" fill="white"/>
<path d="M130.084 948.811H129.602C125.266 948.869 121.266 949.337 118.594 950.096C105.323 953.938 94.1975 964.106 89.5548 976.64L89.511 976.742C87.7152 981.606 86.8392 986.705 86.8684 991.818H86.8538C86.8538 986.792 86.4158 982.425 85.6859 980.102C80.8241 964.807 69.4509 953.763 54.4569 949.819C51.9166 949.176 48.1644 948.811 44.1787 948.811C63.0854 948.709 79.7584 936.102 85.6859 917.345C86.4158 915.022 86.8538 910.639 86.8538 905.629H86.8684C86.9122 912.597 88.6496 919.55 92.0222 925.89C97.8767 936.876 108.053 944.808 119.937 947.628C123.295 948.416 126.711 948.811 130.084 948.811Z" fill="white"/>
<path d="M129.602 1207.38C125.266 1207.44 121.266 1207.9 118.594 1208.66C105.323 1212.51 94.1977 1222.67 89.555 1235.21C87.73 1240.1 86.8394 1245.24 86.8686 1250.39H86.854C86.854 1245.36 86.416 1240.99 85.6861 1238.67C80.8243 1223.37 69.4511 1212.33 54.4571 1208.39C51.9168 1207.74 48.1646 1207.38 44.1643 1207.38C63.0856 1207.28 79.7585 1194.67 85.6861 1175.91C86.416 1173.59 86.854 1169.22 86.854 1164.2H86.8686C86.9124 1171.16 88.6498 1178.13 92.0224 1184.46C97.8769 1195.44 108.053 1203.38 119.937 1206.19C123.134 1206.94 126.39 1207.33 129.602 1207.38Z" fill="white"/>
<path d="M129.602 1983.08C125.266 1983.12 121.266 1983.61 118.594 1984.37C105.323 1988.21 94.1977 1998.38 89.555 2010.91C87.73 2015.8 86.8394 2020.95 86.8686 2026.09H86.854C86.854 2021.06 86.416 2016.69 85.6861 2014.37C80.8243 1999.08 69.4511 1988.03 54.4571 1984.09C51.9168 1983.45 48.1646 1983.08 44.1643 1983.08C63.1002 1982.98 79.7585 1970.36 85.6861 1951.61C86.416 1949.31 86.854 1944.92 86.854 1939.9H86.8686C86.9124 1946.87 88.6498 1953.82 92.0224 1960.16C97.8769 1971.15 108.053 1979.06 119.937 1981.9C123.134 1982.64 126.39 1983.04 129.602 1983.08Z" fill="white"/>
<path d="M85.686 462.967C86.4159 465.29 86.8539 469.658 86.8539 474.683C86.8539 479.708 86.4159 484.076 85.686 486.399C79.7584 505.156 63.0855 517.763 44.1788 517.865H43.9452C40.5727 517.865 37.1563 517.471 33.7984 516.682C21.9142 513.863 11.7381 505.93 5.8836 494.945C0.0290943 483.974 -0.876092 471.104 3.37244 459.607L3.41624 459.505C8.05897 446.971 19.184 436.804 32.4552 432.962C35.1269 432.202 39.1273 431.735 43.4634 431.691H43.9452L44.1788 431.676C48.1645 431.676 51.9167 432.041 54.457 432.684C69.451 436.628 80.8242 447.672 85.686 462.967Z" fill="white"/>
<path d="M85.686 980.102C86.4159 982.425 86.8539 986.792 86.8539 991.818C86.8539 996.843 86.4159 1001.21 85.686 1003.53C79.7584 1022.29 63.0855 1034.9 44.1788 1035H43.9452C40.5727 1035 37.1563 1034.61 33.7984 1033.82C21.9142 1031 11.7381 1023.06 5.8836 1012.08C0.0290943 1001.11 -0.876092 988.239 3.37244 976.742L3.41624 976.64C8.05897 964.106 19.184 953.938 32.4552 950.096C35.1269 949.337 39.1273 948.869 43.4634 948.825H43.9452L44.1788 948.811C48.1645 948.811 51.9167 949.176 54.457 949.819C69.451 953.763 80.8242 964.807 85.686 980.102Z" fill="white"/>
<path d="M85.6859 1152.48C86.4159 1154.8 86.8539 1159.17 86.8539 1164.2C86.8539 1169.22 86.4159 1173.59 85.6859 1175.91C79.7584 1194.67 63.0855 1207.28 44.1642 1207.38H43.4634C40.2515 1207.33 36.9957 1206.94 33.7984 1206.2C21.9141 1203.38 11.7381 1195.44 5.88359 1184.46C0.0144827 1173.44 -0.890704 1160.53 3.41623 1149.02C8.05896 1136.48 19.184 1126.32 32.4552 1122.47C35.1269 1121.72 39.1273 1121.25 43.4634 1121.19H44.1642C48.1645 1121.19 51.9167 1121.55 54.457 1122.2C69.451 1126.14 80.8242 1137.19 85.6859 1152.48Z" fill="white"/>
<path d="M85.6859 2014.37C86.4159 2016.69 86.8539 2021.06 86.8539 2026.09C86.8539 2031.11 86.4159 2035.49 85.6859 2037.8C79.7292 2056.62 62.9687 2069.27 43.9452 2069.27C40.5726 2069.27 37.1563 2068.87 33.7984 2068.09C21.9141 2065.25 11.7381 2057.33 5.88359 2046.35C0.0144827 2035.35 -0.890704 2022.42 3.41623 2010.91C8.05896 1998.38 19.184 1988.21 32.4552 1984.37C35.1269 1983.61 39.1273 1983.12 43.4634 1983.08H44.1642C48.1645 1983.08 51.9167 1983.45 54.457 1984.09C69.451 1988.03 80.8242 1999.08 85.6859 2014.37Z" fill="white"/>
<path d="M43.4634 86.9195C40.2515 86.8757 36.9957 86.4813 33.7984 85.7363C21.9141 82.9169 11.7381 74.9845 5.88359 63.9991C0.0144827 52.9844 -0.890704 40.0706 3.41623 28.5593C8.05896 16.0253 19.184 5.85793 32.4552 2.01594C35.1269 1.25631 39.1273 0.788841 43.4634 0.730408H44.1642C48.1645 0.730408 51.9167 1.09562 54.457 1.73838C69.451 5.68263 80.8242 16.7265 85.6859 32.0214C86.4159 34.3442 86.8539 38.7121 86.8539 43.7373C86.8539 48.7626 86.4159 53.1305 85.6859 55.4532C79.7584 74.2103 63.0855 86.8173 44.1642 86.9195" stroke="white"/>
<path d="M172.963 132.293C172.847 136.296 172.438 139.699 171.825 141.642C165.897 160.399 149.224 173.006 130.317 173.109" stroke="white"/>
<path d="M130.303 86.9196C134.303 86.9196 138.055 87.2848 140.596 87.9275C155.59 91.8718 166.963 102.916 171.824 118.211C172.423 120.095 172.817 123.338 172.949 127.18" stroke="white"/>
<path d="M130.084 173.109C126.711 173.109 123.295 172.714 119.937 171.925C108.053 169.106 97.8768 161.174 92.0223 150.188C88.6498 143.863 86.9124 136.895 86.8686 129.926C86.8394 124.784 87.73 119.642 89.555 114.748C94.1977 102.214 105.323 92.0471 118.594 88.2051C121.266 87.4455 125.266 86.978 129.602 86.9196" stroke="white"/>
<path d="M43.9452 173.109C40.5726 173.109 37.1563 172.714 33.7984 171.925C21.9141 169.106 11.7381 161.174 5.88359 150.188C0.0144827 139.174 -0.890704 126.26 3.41623 114.748C8.05896 102.214 19.184 92.0471 32.4552 88.2051C35.1269 87.4455 39.1273 86.978 43.4634 86.9196H44.1642C48.1645 86.9196 51.9167 87.2848 54.457 87.9275C69.451 91.8718 80.8242 102.916 85.6859 118.211C86.4159 120.533 86.8539 124.901 86.8539 129.926C86.8539 134.952 86.4159 139.32 85.6859 141.642C79.7584 160.399 63.0855 173.006 44.1788 173.109" stroke="white"/>
<path d="M172.963 46.1039C172.847 50.1066 172.438 53.5103 171.825 55.4532C165.897 74.2103 149.224 86.8173 130.303 86.9195H129.602C126.39 86.8757 123.134 86.4813 119.937 85.7363C108.053 82.9169 97.8768 74.9845 92.0223 63.9991C88.6498 57.6737 86.9124 50.7055 86.8686 43.7373C86.8394 38.5952 87.73 33.4531 89.555 28.5593C94.1977 16.0253 105.323 5.85793 118.594 2.01594C121.266 1.25631 125.266 0.788841 129.602 0.730408H130.303C134.303 0.730408 138.055 1.09562 140.596 1.73838C155.59 5.68263 166.963 16.7265 171.825 32.0214C172.423 33.9059 172.817 37.149 172.949 40.991" stroke="white"/>
<path d="M215.609 86.9195C212.397 86.8757 209.142 86.4813 205.944 85.7363C194.06 82.9169 183.884 74.9845 178.029 63.9991C175.036 58.3895 173.343 52.2686 172.963 46.1039C172.963 46.0893 172.949 46.0893 172.963 46.0747C172.846 44.4093 172.846 42.7293 172.949 41.0494V40.991C173.197 36.7691 174.058 32.5766 175.562 28.5593C180.205 16.0253 191.33 5.85793 204.616 2.01594C207.273 1.25631 211.273 0.788841 215.609 0.730408H216.325C220.31 0.730408 224.063 1.09562 226.603 1.73838C241.597 5.68263 252.985 16.7265 257.832 32.0214C258.562 34.3442 259 38.7121 259 43.7373C259 48.7626 258.562 53.1305 257.832 55.4532C251.904 74.2103 235.246 86.8173 216.325 86.9195" stroke="white"/>
<path d="M301.748 86.9195C298.536 86.8757 295.28 86.4813 292.083 85.7363C280.199 82.9169 270.023 74.9845 264.168 63.9991C260.796 57.6737 259.058 50.7055 259.014 43.7373C258.985 38.5952 259.876 33.4531 261.701 28.5593C266.343 16.0253 277.468 5.85793 290.754 2.01594C293.411 1.25631 297.412 0.788841 301.748 0.730408H302.463C306.449 0.730408 310.201 1.09562 312.742 1.73838C327.735 5.68263 339.123 16.7265 343.97 32.0214C344.7 34.3442 345.138 38.7121 345.138 43.7373C345.138 48.7626 344.7 53.1305 343.97 55.4532C338.043 74.2103 321.385 86.8173 302.463 86.9195" stroke="white"/>
<path d="M216.091 173.109C212.718 173.109 209.302 172.714 205.944 171.925C194.06 169.106 183.884 161.174 178.029 150.188C175.036 144.579 173.343 138.458 172.963 132.293C172.963 132.278 172.949 132.278 172.963 132.264C172.846 130.598 172.846 128.918 172.949 127.239V127.18C173.197 122.958 174.058 118.766 175.562 114.748C180.205 102.214 191.33 92.0471 204.616 88.2051C207.273 87.4455 211.273 86.978 215.609 86.9196H216.325C220.31 86.9196 224.063 87.2848 226.603 87.9275C241.597 91.8718 252.985 102.916 257.832 118.211C258.562 120.533 259 124.901 259 129.926C259 134.952 258.562 139.32 257.832 141.642C251.904 160.399 235.246 173.006 216.325 173.109" stroke="white"/>
<path d="M302.23 173.109C298.857 173.109 295.441 172.714 292.083 171.925C280.199 169.106 270.023 161.174 264.168 150.188C260.796 143.863 259.058 136.895 259.014 129.926C258.985 124.784 259.876 119.642 261.701 114.748C266.343 102.214 277.468 92.0471 290.754 88.2051C293.411 87.4455 297.412 86.978 301.748 86.9196H302.463C306.449 86.9196 310.201 87.2848 312.742 87.9275C327.735 91.8718 339.123 102.916 343.97 118.211C344.7 120.533 345.138 124.901 345.138 129.926C345.138 134.952 344.7 139.32 343.97 141.642C338.043 160.399 321.385 173.006 302.463 173.109" stroke="white"/>
<path d="M43.9452 259.298C40.5727 259.298 37.1563 258.903 33.7984 258.115C21.9142 255.295 11.7381 247.363 5.8836 236.377C0.0290943 225.406 -0.876092 212.537 3.37244 201.04L3.41624 200.938C8.05897 188.404 19.184 178.236 32.4552 174.394C35.1269 173.635 39.1273 173.167 43.4634 173.123H43.9452L44.1788 173.109C48.1645 173.109 51.9167 173.474 54.457 174.117C69.451 178.061 80.8242 189.105 85.6859 204.4C86.4159 206.722 86.8539 211.09 86.8539 216.116C86.8539 221.141 86.4159 225.509 85.6859 227.831C79.7584 246.589 63.0855 259.196 44.1788 259.298" stroke="white"/>
<path d="M172.963 304.671C172.847 308.674 172.438 312.078 171.825 314.021C165.897 332.778 149.224 345.385 130.317 345.487" stroke="white"/>
<path d="M130.317 259.298C134.303 259.298 138.055 259.663 140.596 260.306C155.59 264.25 166.963 275.294 171.825 290.589C172.423 292.473 172.817 295.716 172.949 299.558" stroke="white"/>
<path d="M130.084 345.487C126.711 345.487 123.295 345.093 119.937 344.304C108.053 341.484 97.8769 333.552 92.0223 322.567C88.6498 316.226 86.9124 309.273 86.8686 302.305C86.8394 297.192 87.7154 292.094 89.5112 287.229L89.555 287.127C94.1977 274.593 105.323 264.425 118.594 260.583C121.266 259.824 125.266 259.356 129.602 259.312H130.084" stroke="white"/>
<path d="M43.9452 345.487C40.5727 345.487 37.1563 345.093 33.7984 344.304C21.9142 341.484 11.7381 333.552 5.8836 322.567C0.0290943 311.596 -0.876092 298.726 3.37244 287.229L3.41624 287.127C8.05897 274.593 19.184 264.425 32.4552 260.583C35.1269 259.824 39.1273 259.356 43.4634 259.312H43.9452L44.1788 259.298C48.1645 259.298 51.9167 259.663 54.457 260.306C69.451 264.25 80.8242 275.294 85.6859 290.589C86.4159 292.912 86.8539 297.28 86.8539 302.305C86.8539 307.33 86.4159 311.698 85.6859 314.021C79.7584 332.778 63.0855 345.385 44.1788 345.487" stroke="white"/>
<path d="M172.963 218.482C172.847 222.485 172.438 225.889 171.825 227.831C165.897 246.589 149.224 259.196 130.318 259.298H130.084C126.711 259.298 123.295 258.903 119.937 258.115C108.053 255.295 97.8769 247.363 92.0223 236.377C88.6498 230.037 86.9124 223.084 86.8686 216.116C86.8394 211.003 87.7154 205.904 89.5112 201.04L89.555 200.938C94.1977 188.404 105.323 178.236 118.594 174.394C121.266 173.635 125.266 173.167 129.602 173.123H130.084L130.318 173.109C134.303 173.109 138.055 173.474 140.596 174.117C155.59 178.061 166.963 189.105 171.825 204.4C172.423 206.284 172.817 209.527 172.949 213.369" stroke="white"/>
<path d="M216.091 259.298C212.719 259.298 209.302 258.903 205.944 258.115C194.06 255.295 183.884 247.363 178.03 236.377C175.037 230.768 173.343 224.661 172.963 218.482C172.963 218.482 172.949 218.467 172.963 218.453C172.861 216.788 172.847 215.122 172.949 213.442V213.369C173.182 209.191 174.044 205.028 175.518 201.04L175.562 200.938C180.205 188.404 191.33 178.236 204.616 174.394C207.273 173.635 211.288 173.167 215.609 173.123H216.091L216.325 173.109C220.325 173.109 224.063 173.474 226.603 174.117C241.597 178.061 252.985 189.105 257.832 204.4C258.562 206.722 259 211.09 259 216.116C259 221.141 258.562 225.509 257.832 227.831C251.904 246.589 235.246 259.196 216.325 259.298" stroke="white"/>
<path d="M302.23 259.298C298.857 259.298 295.441 258.903 292.083 258.115C280.199 255.295 270.023 247.363 264.168 236.377C260.796 230.052 259.058 223.098 259.014 216.116C258.985 211.017 259.861 205.904 261.657 201.04L261.701 200.938C266.343 188.404 277.468 178.236 290.754 174.394C293.411 173.635 297.426 173.167 301.748 173.123H302.23L302.463 173.109C306.464 173.109 310.201 173.474 312.742 174.117C327.736 178.061 339.123 189.105 343.97 204.4C344.7 206.722 345.138 211.09 345.138 216.116C345.138 221.141 344.7 225.509 343.97 227.831C338.043 246.589 321.385 259.196 302.463 259.298" stroke="white"/>
<path d="M216.091 345.487C212.719 345.487 209.302 345.093 205.944 344.304C194.06 341.484 183.884 333.552 178.03 322.567C175.037 316.957 173.343 310.851 172.963 304.671C172.963 304.671 172.949 304.657 172.963 304.642C172.861 302.977 172.847 301.311 172.949 299.631V299.558C173.182 295.38 174.044 291.217 175.518 287.229L175.562 287.127C180.205 274.593 191.33 264.425 204.616 260.583C207.273 259.824 211.288 259.356 215.609 259.312H216.091L216.325 259.298C220.325 259.298 224.063 259.663 226.603 260.306C241.597 264.25 252.985 275.294 257.832 290.589C258.562 292.912 259 297.28 259 302.305C259 307.33 258.562 311.698 257.832 314.021C251.904 332.778 235.246 345.385 216.325 345.487" stroke="white"/>
<path d="M302.23 345.487C298.857 345.487 295.441 345.093 292.083 344.304C280.199 341.484 270.023 333.552 264.168 322.567C260.796 316.241 259.058 309.288 259.014 302.305C258.985 297.206 259.861 292.094 261.657 287.229L261.701 287.127C266.343 274.593 277.468 264.425 290.754 260.583C293.411 259.824 297.426 259.356 301.748 259.312H302.23L302.463 259.298C306.464 259.298 310.201 259.663 312.742 260.306C327.736 264.25 339.123 275.294 343.97 290.589C344.7 292.912 345.138 297.28 345.138 302.305C345.138 307.33 344.7 311.698 343.97 314.021C338.043 332.778 321.385 345.385 302.463 345.487" stroke="white"/>
<path d="M43.9452 431.676C40.5727 431.676 37.1563 431.282 33.7984 430.493C21.9142 427.673 11.7381 419.741 5.8836 408.756C0.0290943 397.785 -0.876092 384.915 3.37244 373.418L3.41624 373.316C8.05897 360.782 19.184 350.614 32.4552 346.772C35.1269 346.013 39.1273 345.545 43.4634 345.502H43.9452L44.1788 345.487C48.1645 345.487 51.9167 345.852 54.457 346.495C69.451 350.439 80.8242 361.483 85.6859 376.778C86.4159 379.101 86.8539 383.469 86.8539 388.494C86.8539 393.519 86.4159 397.887 85.6859 400.21C79.7584 418.967 63.0855 431.574 44.1788 431.676" stroke="white"/>
<path d="M172.963 477.05C172.847 481.052 172.438 484.456 171.825 486.399C165.897 505.156 149.224 517.763 130.317 517.865" stroke="white"/>
<path d="M130.317 431.676C134.303 431.676 138.055 432.041 140.596 432.684C155.59 436.628 166.963 447.672 171.825 462.967C172.423 464.852 172.817 468.095 172.949 471.937" stroke="white"/>
<path d="M130.084 517.865C126.711 517.865 123.295 517.471 119.937 516.682C108.053 513.863 97.8769 505.93 92.0223 494.945C88.6498 488.605 86.9124 481.651 86.8686 474.683C86.8394 469.57 87.7154 464.472 89.5112 459.607L89.555 459.505C94.1977 446.971 105.323 436.804 118.594 432.962C121.266 432.202 125.266 431.734 129.602 431.691H130.084" stroke="white"/>
<path d="M43.9452 517.865C40.5727 517.865 37.1563 517.471 33.7984 516.682C21.9142 513.863 11.7381 505.93 5.8836 494.945C0.0290943 483.974 -0.876092 471.104 3.37244 459.607L3.41624 459.505C8.05897 446.971 19.184 436.804 32.4552 432.962C35.1269 432.202 39.1273 431.735 43.4634 431.691H43.9452L44.1788 431.676C48.1645 431.676 51.9167 432.041 54.457 432.684C69.451 436.628 80.8242 447.672 85.6859 462.967C86.4159 465.29 86.8539 469.658 86.8539 474.683C86.8539 479.708 86.4159 484.076 85.6859 486.399C79.7584 505.156 63.0855 517.763 44.1788 517.865" stroke="white"/>
<path d="M172.963 390.86C172.847 394.863 172.438 398.267 171.825 400.21C165.897 418.967 149.224 431.574 130.318 431.676H130.084C126.711 431.676 123.295 431.282 119.937 430.493C108.053 427.673 97.8769 419.741 92.0223 408.756C88.6498 402.416 86.9124 395.462 86.8686 388.494C86.8394 383.381 87.7154 378.283 89.5112 373.418L89.555 373.316C94.1977 360.782 105.323 350.614 118.594 346.772C121.266 346.013 125.266 345.545 129.602 345.502H130.084L130.318 345.487C134.303 345.487 138.055 345.852 140.596 346.495C155.59 350.439 166.963 361.483 171.825 376.778C172.423 378.662 172.817 381.905 172.949 385.747" stroke="white"/>
<path d="M216.091 431.676C212.719 431.676 209.302 431.282 205.944 430.493C194.06 427.673 183.884 419.741 178.03 408.756C175.037 403.146 173.343 397.04 172.963 390.86C172.963 390.86 172.949 390.846 172.963 390.831C172.861 389.166 172.847 387.5 172.949 385.821V385.747C173.182 381.57 174.044 377.406 175.518 373.418L175.562 373.316C180.205 360.782 191.33 350.614 204.616 346.772C207.273 346.013 211.288 345.545 215.609 345.502H216.091L216.325 345.487C220.325 345.487 224.063 345.852 226.603 346.495C241.597 350.439 252.985 361.483 257.832 376.778C258.562 379.101 259 383.469 259 388.494C259 393.519 258.562 397.887 257.832 400.21C251.904 418.967 235.246 431.574 216.325 431.676" stroke="white"/>
<path d="M302.23 431.676C298.857 431.676 295.441 431.282 292.083 430.493C280.199 427.673 270.023 419.741 264.168 408.756C260.796 402.43 259.058 395.477 259.014 388.494C258.985 383.396 259.861 378.283 261.657 373.418L261.701 373.316C266.343 360.782 277.468 350.614 290.754 346.772C293.411 346.013 297.426 345.545 301.748 345.502H302.23L302.463 345.487C306.464 345.487 310.201 345.852 312.742 346.495C327.736 350.439 339.123 361.483 343.97 376.778C344.7 379.101 345.138 383.469 345.138 388.494C345.138 393.519 344.7 397.887 343.97 400.21C338.043 418.967 321.385 431.574 302.463 431.676" stroke="white"/>
<path d="M216.091 517.865C212.719 517.865 209.302 517.471 205.944 516.682C194.06 513.863 183.884 505.93 178.03 494.945C175.037 489.335 173.343 483.229 172.963 477.05C172.963 477.05 172.949 477.035 172.963 477.02C172.861 475.355 172.847 473.69 172.949 472.01V471.937C173.182 467.759 174.044 463.595 175.518 459.607L175.562 459.505C180.205 446.971 191.33 436.804 204.616 432.962C207.273 432.202 211.288 431.735 215.609 431.691H216.091L216.325 431.676C220.325 431.676 224.063 432.041 226.603 432.684C241.597 436.628 252.985 447.672 257.832 462.967C258.562 465.29 259 469.658 259 474.683C259 479.708 258.562 484.076 257.832 486.399C251.904 505.156 235.246 517.763 216.325 517.865" stroke="white"/>
<path d="M302.23 517.865C298.857 517.865 295.441 517.471 292.083 516.682C280.199 513.863 270.023 505.93 264.168 494.945C260.796 488.619 259.058 481.666 259.014 474.683C258.985 469.585 259.861 464.472 261.657 459.607L261.701 459.505C266.343 446.971 277.468 436.804 290.754 432.962C293.411 432.202 297.426 431.735 301.748 431.691H302.23L302.463 431.676C306.464 431.676 310.201 432.041 312.742 432.684C327.736 436.628 339.123 447.672 343.97 462.967C344.7 465.29 345.138 469.658 345.138 474.683C345.138 479.708 344.7 484.076 343.97 486.399C338.043 505.156 321.385 517.763 302.463 517.865" stroke="white"/>
<path d="M43.9452 604.054C40.5727 604.054 37.1563 603.66 33.7984 602.871C21.9142 600.052 11.7381 592.119 5.8836 581.134C0.0290943 570.163 -0.876092 557.293 3.37244 545.796L3.41624 545.694C8.05897 533.16 19.184 522.993 32.4552 519.151C35.1269 518.391 39.1273 517.924 43.4634 517.88H43.9452L44.1788 517.865C48.1645 517.865 51.9167 518.23 54.457 518.873C69.451 522.817 80.8242 533.861 85.6859 549.156C86.4159 551.479 86.8539 555.847 86.8539 560.872C86.8539 565.897 86.4159 570.265 85.6859 572.588C79.7584 591.345 63.0855 603.952 44.1788 604.054" stroke="white"/>
<path d="M172.963 649.428C172.847 653.43 172.438 656.834 171.825 658.777C165.897 677.534 149.224 690.141 130.317 690.243" stroke="white"/>
<path d="M130.317 604.054C134.303 604.054 138.055 604.42 140.596 605.062C155.59 609.007 166.963 620.05 171.825 635.345C172.423 637.23 172.817 640.473 172.949 644.315" stroke="white"/>
<path d="M130.084 690.243C126.711 690.243 123.295 689.849 119.937 689.06C108.053 686.241 97.8769 678.308 92.0223 667.323C88.6498 660.983 86.9124 654.029 86.8686 647.061C86.8394 641.948 87.7154 636.85 89.5112 631.985L89.555 631.883C94.1977 619.349 105.323 609.182 118.594 605.34C121.266 604.58 125.266 604.113 129.602 604.069H130.084" stroke="white"/>
<path d="M43.9452 690.243C40.5727 690.243 37.1563 689.849 33.7984 689.06C21.9142 686.241 11.7381 678.308 5.8836 667.323C0.0290943 656.352 -0.876092 643.482 3.37244 631.985L3.41624 631.883C8.05897 619.349 19.184 609.182 32.4552 605.34C35.1269 604.58 39.1273 604.113 43.4634 604.069H43.9452L44.1788 604.054C48.1645 604.054 51.9167 604.42 54.457 605.062C69.451 609.007 80.8242 620.05 85.6859 635.345C86.4159 637.668 86.8539 642.036 86.8539 647.061C86.8539 652.087 86.4159 656.454 85.6859 658.777C79.7584 677.534 63.0855 690.141 44.1788 690.243" stroke="white"/>
<path d="M172.963 563.239C172.847 567.241 172.438 570.645 171.825 572.588C165.897 591.345 149.224 603.952 130.318 604.054H130.084C126.711 604.054 123.295 603.66 119.937 602.871C108.053 600.052 97.8769 592.119 92.0223 581.134C88.6498 574.794 86.9124 567.84 86.8686 560.872C86.8394 555.759 87.7154 550.661 89.5112 545.796L89.555 545.694C94.1977 533.16 105.323 522.993 118.594 519.151C121.266 518.391 125.266 517.924 129.602 517.88H130.084L130.318 517.865C134.303 517.865 138.055 518.23 140.596 518.873C155.59 522.817 166.963 533.861 171.825 549.156C172.423 551.041 172.817 554.284 172.949 558.126" stroke="white"/>
<path d="M216.091 604.054C212.719 604.054 209.302 603.66 205.944 602.871C194.06 600.052 183.884 592.119 178.03 581.134C175.037 575.524 173.343 569.418 172.963 563.239C172.963 563.239 172.949 563.224 172.963 563.209C172.861 561.544 172.847 559.879 172.949 558.199V558.126C173.182 553.948 174.044 549.784 175.518 545.796L175.562 545.694C180.205 533.16 191.33 522.993 204.616 519.151C207.273 518.391 211.288 517.924 215.609 517.88H216.091L216.325 517.865C220.325 517.865 224.063 518.23 226.603 518.873C241.597 522.817 252.985 533.861 257.832 549.156C258.562 551.479 259 555.847 259 560.872C259 565.897 258.562 570.265 257.832 572.588C251.904 591.345 235.246 603.952 216.325 604.054" stroke="white"/>
<path d="M302.23 604.054C298.857 604.054 295.441 603.66 292.083 602.871C280.199 600.052 270.023 592.119 264.168 581.134C260.796 574.808 259.058 567.855 259.014 560.872C258.985 555.774 259.861 550.661 261.657 545.796L261.701 545.694C266.343 533.16 277.468 522.993 290.754 519.151C293.411 518.391 297.426 517.924 301.748 517.88H302.23L302.463 517.865C306.464 517.865 310.201 518.23 312.742 518.873C327.736 522.817 339.123 533.861 343.97 549.156C344.7 551.479 345.138 555.847 345.138 560.872C345.138 565.897 344.7 570.265 343.97 572.588C338.043 591.345 321.385 603.952 302.463 604.054" stroke="white"/>
<path d="M216.091 690.243C212.719 690.243 209.302 689.849 205.944 689.06C194.06 686.241 183.884 678.308 178.03 667.323C175.037 661.713 173.343 655.607 172.963 649.428C172.963 649.428 172.949 649.413 172.963 649.399C172.861 647.733 172.847 646.068 172.949 644.388V644.315C173.182 640.137 174.044 635.974 175.518 631.985L175.562 631.883C180.205 619.349 191.33 609.182 204.616 605.34C207.273 604.58 211.288 604.113 215.609 604.069H216.091L216.325 604.054C220.325 604.054 224.063 604.42 226.603 605.062C241.597 609.007 252.985 620.05 257.832 635.345C258.562 637.668 259 642.036 259 647.061C259 652.087 258.562 656.454 257.832 658.777C251.904 677.534 235.246 690.141 216.325 690.243" stroke="white"/>
<path d="M302.23 690.243C298.857 690.243 295.441 689.849 292.083 689.06C280.199 686.241 270.023 678.308 264.168 667.323C260.796 660.998 259.058 654.044 259.014 647.061C258.985 641.963 259.861 636.85 261.657 631.985L261.701 631.883C266.343 619.349 277.468 609.182 290.754 605.34C293.411 604.58 297.426 604.113 301.748 604.069H302.23L302.463 604.054C306.464 604.054 310.201 604.42 312.742 605.062C327.736 609.007 339.123 620.05 343.97 635.345C344.7 637.668 345.138 642.036 345.138 647.061C345.138 652.087 344.7 656.454 343.97 658.777C338.043 677.534 321.385 690.141 302.463 690.243" stroke="white"/>
<path d="M43.9452 776.433C40.5727 776.433 37.1563 776.038 33.7984 775.249C21.9142 772.43 11.7381 764.498 5.8836 753.512C0.0290943 742.541 -0.876092 729.671 3.37244 718.175L3.41624 718.072C8.05897 705.538 19.184 695.371 32.4552 691.529C35.1269 690.769 39.1273 690.302 43.4634 690.258H43.9452L44.1788 690.243C48.1645 690.243 51.9167 690.609 54.457 691.251C69.451 695.196 80.8242 706.24 85.6859 721.535C86.4159 723.857 86.8539 728.225 86.8539 733.25C86.8539 738.276 86.4159 742.644 85.6859 744.966C79.7584 763.723 63.0855 776.33 44.1788 776.433" stroke="white"/>
<path d="M172.963 821.806C172.847 825.809 172.438 829.212 171.825 831.155C165.897 849.912 149.224 862.519 130.317 862.622" stroke="white"/>
<path d="M130.317 776.433C134.303 776.433 138.055 776.798 140.596 777.441C155.59 781.385 166.963 792.429 171.825 807.724C172.423 809.608 172.817 812.851 172.949 816.693" stroke="white"/>
<path d="M130.084 862.622C126.711 862.622 123.295 862.227 119.937 861.439C108.053 858.619 97.8769 850.687 92.0223 839.701C88.6498 833.361 86.9124 826.408 86.8686 819.44C86.8394 814.327 87.7154 809.228 89.5112 804.364L89.555 804.261C94.1977 791.728 105.323 781.56 118.594 777.718C121.266 776.959 125.266 776.491 129.602 776.447H130.084" stroke="white"/>
<path d="M43.9452 862.622C40.5727 862.622 37.1563 862.227 33.7984 861.439C21.9142 858.619 11.7381 850.687 5.8836 839.701C0.0290943 828.73 -0.876092 815.861 3.37244 804.364L3.41624 804.262C8.05897 791.728 19.184 781.56 32.4552 777.718C35.1269 776.959 39.1273 776.491 43.4634 776.447H43.9452L44.1788 776.433C48.1645 776.433 51.9167 776.798 54.457 777.441C69.451 781.385 80.8242 792.429 85.6859 807.724C86.4159 810.046 86.8539 814.414 86.8539 819.44C86.8539 824.465 86.4159 828.833 85.6859 831.156C79.7584 849.913 63.0855 862.52 44.1788 862.622" stroke="white"/>
<path d="M172.963 735.617C172.847 739.62 172.438 743.023 171.825 744.966C165.897 763.723 149.224 776.33 130.318 776.433H130.084C126.711 776.433 123.295 776.038 119.937 775.249C108.053 772.43 97.8769 764.498 92.0223 753.512C88.6498 747.172 86.9124 740.219 86.8686 733.25C86.8394 728.137 87.7154 723.039 89.5112 718.175L89.555 718.072C94.1977 705.538 105.323 695.371 118.594 691.529C121.266 690.769 125.266 690.302 129.602 690.258H130.084L130.318 690.243C134.303 690.243 138.055 690.609 140.596 691.251C155.59 695.196 166.963 706.24 171.825 721.535C172.423 723.419 172.817 726.662 172.949 730.504" stroke="white"/>
<path d="M216.091 776.433C212.719 776.433 209.302 776.038 205.944 775.249C194.06 772.43 183.884 764.498 178.03 753.512C175.037 747.903 173.343 741.796 172.963 735.617C172.963 735.617 172.949 735.602 172.963 735.588C172.861 733.922 172.847 732.257 172.949 730.577V730.504C173.182 726.326 174.044 722.163 175.518 718.175L175.562 718.072C180.205 705.538 191.33 695.371 204.616 691.529C207.273 690.769 211.288 690.302 215.609 690.258H216.091L216.325 690.243C220.325 690.243 224.063 690.609 226.603 691.251C241.597 695.196 252.985 706.24 257.832 721.535C258.562 723.857 259 728.225 259 733.25C259 738.276 258.562 742.644 257.832 744.966C251.904 763.723 235.246 776.33 216.325 776.433" stroke="white"/>
<path d="M302.23 776.433C298.857 776.433 295.441 776.038 292.083 775.249C280.199 772.43 270.023 764.498 264.168 753.512C260.796 747.187 259.058 740.233 259.014 733.25C258.985 728.152 259.861 723.039 261.657 718.175L261.701 718.072C266.343 705.538 277.468 695.371 290.754 691.529C293.411 690.769 297.426 690.302 301.748 690.258H302.23L302.463 690.243C306.464 690.243 310.201 690.609 312.742 691.251C327.736 695.196 339.123 706.24 343.97 721.535C344.7 723.857 345.138 728.225 345.138 733.25C345.138 738.276 344.7 742.644 343.97 744.966C338.043 763.723 321.385 776.33 302.463 776.433" stroke="white"/>
<path d="M216.091 862.622C212.719 862.622 209.302 862.227 205.944 861.439C194.06 858.619 183.884 850.687 178.03 839.701C175.037 834.092 173.343 827.985 172.963 821.806C172.963 821.806 172.949 821.792 172.963 821.777C172.861 820.112 172.847 818.446 172.949 816.766V816.693C173.182 812.515 174.044 808.352 175.518 804.364L175.562 804.262C180.205 791.728 191.33 781.56 204.616 777.718C207.273 776.959 211.288 776.491 215.609 776.447H216.091L216.325 776.433C220.325 776.433 224.063 776.798 226.603 777.441C241.597 781.385 252.985 792.429 257.832 807.724C258.562 810.046 259 814.414 259 819.44C259 824.465 258.562 828.833 257.832 831.156C251.904 849.913 235.246 862.52 216.325 862.622" stroke="white"/>
<path d="M302.23 862.622C298.857 862.622 295.441 862.227 292.083 861.439C280.199 858.619 270.023 850.687 264.168 839.701C260.796 833.376 259.058 826.422 259.014 819.44C258.985 814.341 259.861 809.228 261.657 804.364L261.701 804.262C266.343 791.728 277.468 781.56 290.754 777.718C293.411 776.959 297.426 776.491 301.748 776.447H302.23L302.463 776.433C306.464 776.433 310.201 776.798 312.742 777.441C327.736 781.385 339.123 792.429 343.97 807.724C344.7 810.046 345.138 814.414 345.138 819.44C345.138 824.465 344.7 828.833 343.97 831.156C338.043 849.913 321.385 862.52 302.463 862.622" stroke="white"/>
<path d="M43.9452 948.811C40.5727 948.811 37.1563 948.416 33.7984 947.628C21.9142 944.808 11.7381 936.876 5.8836 925.89C0.0290943 914.92 -0.876092 902.05 3.37244 890.553L3.41624 890.451C8.05897 877.917 19.184 867.749 32.4552 863.907C35.1269 863.148 39.1273 862.68 43.4634 862.636H43.9452L44.1788 862.622C48.1645 862.622 51.9167 862.987 54.457 863.63C69.451 867.574 80.8242 878.618 85.6859 893.913C86.4159 896.236 86.8539 900.603 86.8539 905.629C86.8539 910.654 86.4159 915.022 85.6859 917.345C79.7584 936.102 63.0855 948.709 44.1788 948.811" stroke="white"/>
<path d="M172.963 994.184C172.847 998.187 172.438 1001.59 171.825 1003.53C165.897 1022.29 149.224 1034.9 130.317 1035" stroke="white"/>
<path d="M130.317 948.811C134.303 948.811 138.055 949.176 140.596 949.819C155.59 953.763 166.963 964.807 171.825 980.102C172.423 981.986 172.817 985.229 172.949 989.071" stroke="white"/>
<path d="M130.084 1035C126.711 1035 123.295 1034.61 119.937 1033.82C108.053 1031 97.8769 1023.07 92.0223 1012.08C88.6498 1005.74 86.9124 998.786 86.8686 991.818C86.8394 986.705 87.7154 981.607 89.5112 976.742L89.555 976.64C94.1977 964.106 105.323 953.938 118.594 950.096C121.266 949.337 125.266 948.869 129.602 948.826H130.084" stroke="white"/>
<path d="M43.9452 1035C40.5727 1035 37.1563 1034.61 33.7984 1033.82C21.9142 1031 11.7381 1023.06 5.8836 1012.08C0.0290943 1001.11 -0.876092 988.239 3.37244 976.742L3.41624 976.64C8.05897 964.106 19.184 953.938 32.4552 950.096C35.1269 949.337 39.1273 948.869 43.4634 948.825H43.9452L44.1788 948.811C48.1645 948.811 51.9167 949.176 54.457 949.819C69.451 953.763 80.8242 964.807 85.6859 980.102C86.4159 982.425 86.8539 986.792 86.8539 991.818C86.8539 996.843 86.4159 1001.21 85.6859 1003.53C79.7584 1022.29 63.0855 1034.9 44.1788 1035" stroke="white"/>
<path d="M172.963 907.995C172.847 911.998 172.438 915.402 171.825 917.345C165.897 936.102 149.224 948.709 130.318 948.811H130.084C126.711 948.811 123.295 948.416 119.937 947.628C108.053 944.808 97.8769 936.876 92.0223 925.89C88.6498 919.55 86.9124 912.597 86.8686 905.629C86.8394 900.516 87.7154 895.417 89.5112 890.553L89.555 890.451C94.1977 877.917 105.323 867.749 118.594 863.907C121.266 863.148 125.266 862.68 129.602 862.636H130.084L130.318 862.622C134.303 862.622 138.055 862.987 140.596 863.63C155.59 867.574 166.963 878.618 171.825 893.913C172.423 895.797 172.817 899.04 172.949 902.882" stroke="white"/>
<path d="M216.091 948.811C212.719 948.811 209.302 948.416 205.944 947.628C194.06 944.808 183.884 936.876 178.03 925.89C175.037 920.281 173.343 914.175 172.963 907.995C172.963 907.995 172.949 907.981 172.963 907.966C172.861 906.301 172.847 904.635 172.949 902.955V902.882C173.182 898.704 174.044 894.541 175.518 890.553L175.562 890.451C180.205 877.917 191.33 867.749 204.616 863.907C207.273 863.148 211.288 862.68 215.609 862.636H216.091L216.325 862.622C220.325 862.622 224.063 862.987 226.603 863.63C241.597 867.574 252.985 878.618 257.832 893.913C258.562 896.236 259 900.603 259 905.629C259 910.654 258.562 915.022 257.832 917.345C251.904 936.102 235.246 948.709 216.325 948.811" stroke="white"/>
<path d="M302.23 948.811C298.857 948.811 295.441 948.416 292.083 947.628C280.199 944.808 270.023 936.876 264.168 925.89C260.796 919.565 259.058 912.611 259.014 905.629C258.985 900.53 259.861 895.417 261.657 890.553L261.701 890.451C266.343 877.917 277.468 867.749 290.754 863.907C293.411 863.148 297.426 862.68 301.748 862.636H302.23L302.463 862.622C306.464 862.622 310.201 862.987 312.742 863.63C327.736 867.574 339.123 878.618 343.97 893.913C344.7 896.236 345.138 900.603 345.138 905.629C345.138 910.654 344.7 915.022 343.97 917.345C338.043 936.102 321.385 948.709 302.463 948.811" stroke="white"/>
<path d="M216.091 1035C212.719 1035 209.302 1034.61 205.944 1033.82C194.06 1031 183.884 1023.06 178.03 1012.08C175.037 1006.47 173.343 1000.36 172.963 994.184C172.963 994.184 172.949 994.17 172.963 994.155C172.861 992.49 172.847 990.824 172.949 989.144V989.071C173.182 984.893 174.044 980.73 175.518 976.742L175.562 976.64C180.205 964.106 191.33 953.938 204.616 950.096C207.273 949.337 211.288 948.869 215.609 948.825H216.091L216.325 948.811C220.325 948.811 224.063 949.176 226.603 949.819C241.597 953.763 252.985 964.807 257.832 980.102C258.562 982.425 259 986.792 259 991.818C259 996.843 258.562 1001.21 257.832 1003.53C251.904 1022.29 235.246 1034.9 216.325 1035" stroke="white"/>
<path d="M302.23 1035C298.857 1035 295.441 1034.61 292.083 1033.82C280.199 1031 270.023 1023.06 264.168 1012.08C260.796 1005.75 259.058 998.8 259.014 991.818C258.985 986.719 259.861 981.606 261.657 976.742L261.701 976.64C266.343 964.106 277.468 953.938 290.754 950.096C293.411 949.337 297.426 948.869 301.748 948.825H302.23L302.463 948.811C306.464 948.811 310.201 949.176 312.742 949.819C327.736 953.763 339.123 964.807 343.97 980.102C344.7 982.425 345.138 986.792 345.138 991.818C345.138 996.843 344.7 1001.21 343.97 1003.53C338.043 1022.29 321.385 1034.9 302.463 1035" stroke="white"/>
<path d="M43.4634 1121.19C40.2515 1121.15 36.9957 1120.75 33.7984 1120.01C21.9142 1117.19 11.7381 1109.25 5.8836 1098.27C0.0290943 1087.3 -0.876092 1074.43 3.37244 1062.93L3.41624 1062.83C8.05897 1050.29 19.184 1040.13 32.4552 1036.29C35.1269 1035.53 39.1273 1035.06 43.4634 1035.01H43.9452L44.1788 1035C48.1645 1035 51.9167 1035.37 54.457 1036.01C69.451 1039.95 80.8242 1051 85.6859 1066.29C86.4159 1068.61 86.8539 1072.98 86.8539 1078.01C86.8539 1083.03 86.4159 1087.4 85.6859 1089.72C79.7584 1108.48 63.0855 1121.09 44.1642 1121.19" stroke="white"/>
<path d="M172.963 1166.56C172.846 1170.58 172.438 1173.97 171.824 1175.91C165.897 1194.67 149.224 1207.28 130.303 1207.38" stroke="white"/>
<path d="M130.303 1121.19C134.303 1121.19 138.055 1121.55 140.596 1122.2C155.59 1126.14 166.963 1137.19 171.824 1152.48C172.423 1154.36 172.817 1157.61 172.949 1161.45" stroke="white"/>
<path d="M129.602 1207.38C126.39 1207.33 123.134 1206.94 119.937 1206.2C108.053 1203.38 97.8768 1195.44 92.0223 1184.46C88.6498 1178.13 86.9124 1171.16 86.8686 1164.2C86.8394 1159.05 87.73 1153.91 89.555 1149.02C94.1977 1136.48 105.323 1126.32 118.594 1122.47C121.266 1121.72 125.266 1121.25 129.602 1121.19" stroke="white"/>
<path d="M43.4634 1207.38C40.2515 1207.33 36.9957 1206.94 33.7984 1206.2C21.9141 1203.38 11.7381 1195.44 5.88359 1184.46C0.0144827 1173.44 -0.890704 1160.53 3.41623 1149.02C8.05896 1136.48 19.184 1126.32 32.4552 1122.47C35.1269 1121.72 39.1273 1121.25 43.4634 1121.19H44.1642C48.1645 1121.19 51.9167 1121.55 54.457 1122.2C69.451 1126.14 80.8242 1137.19 85.6859 1152.48C86.4159 1154.8 86.8539 1159.17 86.8539 1164.2C86.8539 1169.22 86.4159 1173.59 85.6859 1175.91C79.7584 1194.67 63.0855 1207.28 44.1642 1207.38" stroke="white"/>
<path d="M172.963 1080.37C172.847 1084.39 172.438 1087.78 171.825 1089.72C165.897 1108.48 149.224 1121.09 130.303 1121.19H129.602C126.39 1121.15 123.134 1120.75 119.937 1120.01C108.053 1117.19 97.8769 1109.25 92.0223 1098.27C88.6498 1091.93 86.9124 1084.98 86.8686 1078.01C86.8394 1072.89 87.7154 1067.8 89.5112 1062.93L89.555 1062.83C94.1977 1050.29 105.323 1040.13 118.594 1036.29C121.266 1035.53 125.266 1035.06 129.602 1035.01H130.084L130.318 1035C134.303 1035 138.055 1035.37 140.596 1036.01C155.59 1039.95 166.963 1051 171.825 1066.29C172.423 1068.18 172.817 1071.42 172.949 1075.26" stroke="white"/>
<path d="M215.609 1121.19C212.397 1121.15 209.142 1120.75 205.944 1120.01C194.06 1117.19 183.884 1109.25 178.03 1098.27C175.037 1092.66 173.343 1086.55 172.963 1080.37C172.963 1080.37 172.949 1080.36 172.963 1080.34C172.861 1078.68 172.847 1077.01 172.949 1075.33V1075.26C173.182 1071.08 174.044 1066.92 175.518 1062.93L175.562 1062.83C180.205 1050.29 191.33 1040.13 204.616 1036.29C207.273 1035.53 211.288 1035.06 215.609 1035.01H216.091L216.325 1035C220.325 1035 224.063 1035.37 226.603 1036.01C241.597 1039.95 252.985 1051 257.832 1066.29C258.562 1068.61 259 1072.98 259 1078.01C259 1083.03 258.562 1087.4 257.832 1089.72C251.904 1108.48 235.246 1121.09 216.31 1121.19" stroke="white"/>
<path d="M301.748 1121.19C298.536 1121.15 295.28 1120.75 292.083 1120.01C280.199 1117.19 270.023 1109.25 264.168 1098.27C260.796 1091.94 259.058 1084.99 259.014 1078.01C258.985 1072.91 259.861 1067.8 261.657 1062.93L261.701 1062.83C266.343 1050.29 277.468 1040.13 290.754 1036.29C293.411 1035.53 297.426 1035.06 301.748 1035.01H302.23L302.463 1035C306.464 1035 310.201 1035.37 312.742 1036.01C327.736 1039.95 339.123 1051 343.97 1066.29C344.7 1068.61 345.138 1072.98 345.138 1078.01C345.138 1083.03 344.7 1087.4 343.97 1089.72C338.043 1108.48 321.385 1121.09 302.449 1121.19" stroke="white"/>
<path d="M215.609 1207.38C212.397 1207.33 209.142 1206.94 205.944 1206.2C194.06 1203.38 183.884 1195.44 178.029 1184.46C175.036 1178.85 173.343 1172.73 172.963 1166.56C172.963 1166.55 172.949 1166.55 172.963 1166.53C172.846 1164.87 172.846 1163.19 172.949 1161.51V1161.45C173.197 1157.23 174.058 1153.04 175.562 1149.02C180.205 1136.48 191.33 1126.32 204.616 1122.47C207.273 1121.72 211.273 1121.25 215.609 1121.19H216.31C220.31 1121.19 224.063 1121.55 226.603 1122.2C241.597 1126.14 252.985 1137.19 257.832 1152.48C258.562 1154.8 259 1159.19 259 1164.2C259 1169.21 258.562 1173.59 257.832 1175.91C251.904 1194.67 235.246 1207.28 216.31 1207.38" stroke="white"/>
<path d="M301.748 1207.38C298.536 1207.33 295.28 1206.94 292.083 1206.2C280.199 1203.38 270.023 1195.44 264.168 1184.46C260.796 1178.13 259.058 1171.16 259.014 1164.2C258.985 1159.05 259.876 1153.91 261.701 1149.02C266.343 1136.48 277.468 1126.32 290.754 1122.47C293.411 1121.72 297.412 1121.25 301.748 1121.19H302.449C306.449 1121.19 310.201 1121.55 312.742 1122.2C327.735 1126.14 339.123 1137.19 343.97 1152.48C344.7 1154.8 345.138 1159.19 345.138 1164.2C345.138 1169.21 344.7 1173.59 343.97 1175.91C338.043 1194.67 321.385 1207.28 302.449 1207.38" stroke="white"/>
<path d="M43.4634 1293.57C40.2515 1293.52 36.9957 1293.13 33.7984 1292.38C21.9141 1289.56 11.7381 1281.63 5.88359 1270.65C0.0144827 1259.63 -0.890704 1246.72 3.41623 1235.21C8.05896 1222.67 19.184 1212.51 32.4552 1208.66C35.1269 1207.9 39.1273 1207.44 43.4634 1207.38H44.1642C48.1645 1207.38 51.9167 1207.74 54.457 1208.39C69.451 1212.33 80.8242 1223.37 85.6859 1238.67C86.4159 1240.99 86.8539 1245.36 86.8539 1250.39C86.8539 1255.41 86.4159 1259.78 85.6859 1262.1C79.7584 1280.86 63.0855 1293.47 44.1642 1293.57" stroke="white"/>
<path d="M172.963 1338.94C172.846 1342.96 172.438 1346.35 171.824 1348.29C165.897 1367.05 149.224 1379.65 130.303 1379.76" stroke="white"/>
<path d="M130.303 1293.57C134.303 1293.57 138.055 1293.93 140.596 1294.58C155.59 1298.52 166.963 1309.56 171.824 1324.86C172.423 1326.74 172.817 1329.99 172.949 1333.83" stroke="white"/>
<path d="M129.602 1379.76C126.39 1379.71 123.134 1379.32 119.937 1378.57C108.053 1375.75 97.8768 1367.82 92.0223 1356.84C88.6498 1350.51 86.9124 1343.54 86.8686 1336.57C86.8394 1331.43 87.73 1326.29 89.555 1321.4C94.1977 1308.86 105.323 1298.69 118.594 1294.85C121.266 1294.09 125.266 1293.63 129.602 1293.57" stroke="white"/>
<path d="M43.4634 1379.76C40.2515 1379.71 36.9957 1379.32 33.7984 1378.57C21.9141 1375.75 11.7381 1367.82 5.88359 1356.84C0.0144827 1345.82 -0.890704 1332.91 3.41623 1321.4C8.05896 1308.86 19.184 1298.69 32.4552 1294.85C35.1269 1294.09 39.1273 1293.63 43.4634 1293.57H44.1642C48.1645 1293.57 51.9167 1293.93 54.457 1294.58C69.451 1298.52 80.8242 1309.56 85.6859 1324.86C86.4159 1327.18 86.8539 1331.55 86.8539 1336.57C86.8539 1341.6 86.4159 1345.97 85.6859 1348.29C79.7584 1367.05 63.0855 1379.65 44.1642 1379.76" stroke="white"/>
<path d="M172.963 1252.75C172.847 1256.77 172.438 1260.16 171.825 1262.1C165.897 1280.86 149.224 1293.47 130.303 1293.57H129.602C126.39 1293.52 123.134 1293.13 119.937 1292.38C108.053 1289.56 97.8768 1281.63 92.0223 1270.65C88.6498 1264.32 86.9124 1257.35 86.8686 1250.39C86.8394 1245.24 87.73 1240.1 89.555 1235.21C94.1977 1222.67 105.323 1212.51 118.594 1208.66C121.266 1207.9 125.266 1207.44 129.602 1207.38H130.303C134.303 1207.38 138.055 1207.74 140.596 1208.39C155.59 1212.33 166.963 1223.37 171.825 1238.67C172.423 1240.55 172.817 1243.8 172.949 1247.64" stroke="white"/>
<path d="M215.609 1293.57C212.397 1293.52 209.142 1293.13 205.944 1292.38C194.06 1289.56 183.884 1281.63 178.029 1270.65C175.036 1265.04 173.343 1258.92 172.963 1252.75C172.963 1252.74 172.949 1252.74 172.963 1252.72C172.846 1251.06 172.846 1249.38 172.949 1247.7V1247.64C173.197 1243.42 174.058 1239.22 175.562 1235.21C180.205 1222.67 191.33 1212.51 204.616 1208.66C207.273 1207.9 211.273 1207.44 215.609 1207.38H216.31C220.31 1207.38 224.063 1207.74 226.603 1208.39C241.597 1212.33 252.985 1223.37 257.832 1238.67C258.562 1240.99 259 1245.37 259 1250.39C259 1255.4 258.562 1259.78 257.832 1262.1C251.904 1280.86 235.246 1293.47 216.31 1293.57" stroke="white"/>
<path d="M301.748 1293.57C298.536 1293.52 295.28 1293.13 292.083 1292.38C280.199 1289.56 270.023 1281.63 264.168 1270.65C260.796 1264.32 259.058 1257.35 259.014 1250.39C258.985 1245.24 259.876 1240.1 261.701 1235.21C266.343 1222.67 277.468 1212.51 290.754 1208.66C293.411 1207.9 297.412 1207.44 301.748 1207.38H302.449C306.449 1207.38 310.201 1207.74 312.742 1208.39C327.735 1212.33 339.123 1223.37 343.97 1238.67C344.7 1240.99 345.138 1245.37 345.138 1250.39C345.138 1255.4 344.7 1259.78 343.97 1262.1C338.043 1280.86 321.385 1293.47 302.449 1293.57" stroke="white"/>
<path d="M215.609 1379.76C212.397 1379.71 209.142 1379.32 205.944 1378.57C194.06 1375.75 183.884 1367.82 178.029 1356.84C175.036 1351.23 173.343 1345.11 172.963 1338.94C172.963 1338.93 172.949 1338.93 172.963 1338.91C172.846 1337.25 172.846 1335.57 172.949 1333.89V1333.83C173.197 1329.61 174.058 1325.41 175.562 1321.4C180.205 1308.86 191.33 1298.69 204.616 1294.85C207.273 1294.09 211.273 1293.63 215.609 1293.57H216.31C220.31 1293.57 224.063 1293.93 226.603 1294.58C241.597 1298.52 252.985 1309.56 257.832 1324.86C258.562 1327.18 259 1331.56 259 1336.57C259 1341.58 258.562 1345.97 257.832 1348.29C251.904 1367.05 235.246 1379.65 216.31 1379.76" stroke="white"/>
<path d="M301.748 1379.76C298.536 1379.71 295.28 1379.32 292.083 1378.57C280.199 1375.75 270.023 1367.82 264.168 1356.84C260.796 1350.51 259.058 1343.54 259.014 1336.57C258.985 1331.43 259.876 1326.29 261.701 1321.4C266.343 1308.86 277.468 1298.69 290.754 1294.85C293.411 1294.09 297.412 1293.63 301.748 1293.57H302.449C306.449 1293.57 310.201 1293.93 312.742 1294.58C327.735 1298.52 339.123 1309.56 343.97 1324.86C344.7 1327.18 345.138 1331.56 345.138 1336.57C345.138 1341.58 344.7 1345.97 343.97 1348.29C338.043 1367.05 321.385 1379.65 302.449 1379.76" stroke="white"/>
<path d="M43.4634 1465.95C40.2515 1465.9 36.9957 1465.51 33.7984 1464.76C21.9141 1461.94 11.7381 1454.01 5.88359 1443.03C0.0144827 1432.03 -0.890704 1419.1 3.41623 1407.59C8.05896 1395.05 19.184 1384.88 32.4552 1381.04C35.1269 1380.28 39.1273 1379.81 43.4634 1379.76H44.1642C48.1645 1379.76 51.9167 1380.12 54.457 1380.76C69.451 1384.71 80.8242 1395.75 85.6859 1411.05C86.4159 1413.37 86.8539 1417.74 86.8539 1422.76C86.8539 1427.79 86.4159 1432.16 85.6859 1434.48C79.7584 1453.22 63.0855 1465.84 44.1642 1465.95" stroke="white"/>
<path d="M130.303 1465.95C134.288 1465.95 138.055 1466.31 140.596 1466.95C155.59 1470.9 166.963 1481.94 171.824 1497.24C172.554 1499.56 172.992 1503.94 172.992 1508.95C172.992 1513.96 172.554 1518.36 171.824 1520.67C165.897 1539.41 149.239 1552.03 130.303 1552.13" stroke="white"/>
<path d="M129.602 1552.13C126.39 1552.09 123.134 1551.7 119.937 1550.95C108.053 1548.12 97.8768 1540.2 92.0223 1529.21C88.6498 1522.87 86.9124 1515.92 86.8686 1508.95C86.8394 1503.81 87.73 1498.67 89.555 1493.77C94.1977 1481.24 105.323 1471.07 118.594 1467.23C121.266 1466.47 125.266 1465.99 129.602 1465.95" stroke="white"/>
<path d="M43.4634 1552.13C40.2515 1552.09 36.9957 1551.7 33.7984 1550.95C21.9141 1548.12 11.7381 1540.2 5.88359 1529.21C0.0144827 1518.21 -0.890704 1505.29 3.41623 1493.77C8.05896 1481.24 19.184 1471.07 32.4552 1467.23C35.1269 1466.47 39.1273 1465.99 43.4634 1465.95H44.1642C48.1499 1465.95 51.9167 1466.31 54.457 1466.95C69.451 1470.9 80.8242 1481.94 85.6859 1497.24C86.4159 1499.56 86.8539 1503.93 86.8539 1508.95C86.8539 1513.98 86.4159 1518.36 85.6859 1520.67C79.7584 1539.41 63.1001 1552.03 44.1642 1552.13" stroke="white"/>
<path d="M172.963 1425.13C172.847 1429.15 172.438 1432.54 171.825 1434.48C165.897 1453.22 149.224 1465.84 130.303 1465.95H129.602C126.39 1465.9 123.134 1465.51 119.937 1464.76C108.053 1461.94 97.8768 1454.01 92.0223 1443.03C88.6498 1436.69 86.9124 1429.73 86.8686 1422.76C86.8394 1417.62 87.73 1412.48 89.555 1407.59C94.1977 1395.05 105.323 1384.88 118.594 1381.04C121.266 1380.28 125.266 1379.81 129.602 1379.76H130.303C134.303 1379.76 138.055 1380.12 140.596 1380.76C155.59 1384.71 166.963 1395.75 171.825 1411.05C172.423 1412.93 172.817 1416.18 172.949 1420.02" stroke="white"/>
<path d="M215.741 1465.95C212.485 1465.92 209.185 1465.52 205.944 1464.76C194.06 1461.93 183.884 1454.01 178.029 1443.03C175.036 1437.42 173.343 1431.29 172.963 1425.13C172.963 1425.12 172.949 1425.12 172.963 1425.1C172.846 1423.44 172.846 1421.76 172.949 1420.08V1420.02C173.197 1415.8 174.058 1411.6 175.562 1407.59C180.205 1395.05 191.33 1384.88 204.616 1381.04C207.273 1380.28 211.273 1379.81 215.609 1379.76H216.31C220.31 1379.76 224.063 1380.12 226.603 1380.76C241.597 1384.71 252.985 1395.75 257.832 1411.05C258.562 1413.37 259 1417.75 259 1422.76C259 1427.77 258.562 1432.16 257.832 1434.48C251.89 1453.29 235.115 1465.95 216.091 1465.95" stroke="white"/>
<path d="M301.879 1465.95C298.624 1465.92 295.324 1465.52 292.083 1464.76C280.199 1461.93 270.023 1454.01 264.168 1443.03C260.796 1436.7 259.058 1429.73 259.014 1422.76C258.985 1417.62 259.876 1412.48 261.701 1407.59C266.343 1395.05 277.468 1384.88 290.754 1381.04C293.411 1380.28 297.412 1379.81 301.748 1379.76H302.449C306.449 1379.76 310.201 1380.12 312.742 1380.76C327.735 1384.71 339.123 1395.75 343.97 1411.05C344.7 1413.37 345.138 1417.75 345.138 1422.76C345.138 1427.77 344.7 1432.16 343.97 1434.48C338.028 1453.29 321.253 1465.95 302.23 1465.95" stroke="white"/>
<path d="M215.741 1552.13C212.529 1552.09 209.273 1551.7 206.076 1550.95C194.192 1548.12 184.016 1540.2 178.161 1529.21C174.788 1522.89 173.051 1515.92 173.007 1508.95C172.978 1503.81 173.869 1498.67 175.694 1493.77C180.336 1481.24 191.461 1471.07 204.733 1467.23C207.404 1466.46 211.405 1465.99 215.741 1465.95H216.442C220.427 1465.95 224.194 1466.31 226.734 1466.95C241.728 1470.9 253.102 1481.94 257.963 1497.24C258.693 1499.56 259.131 1503.94 259.131 1508.95C259.131 1513.96 258.693 1518.36 257.963 1520.67C252.036 1539.41 235.378 1552.03 216.442 1552.13" stroke="white"/>
<path d="M301.879 1552.13C298.667 1552.09 295.412 1551.7 292.214 1550.95C280.33 1548.12 270.154 1540.2 264.299 1529.21C260.927 1522.89 259.19 1515.92 259.146 1508.95C259.117 1503.81 260.007 1498.67 261.832 1493.77C266.475 1481.24 277.6 1471.07 290.871 1467.23C293.543 1466.46 297.543 1465.99 301.879 1465.95H302.58C306.566 1465.95 310.333 1466.31 312.873 1466.95C327.867 1470.9 339.24 1481.94 344.102 1497.24C344.832 1499.56 345.27 1503.94 345.27 1508.95C345.27 1513.96 344.832 1518.36 344.102 1520.67C338.174 1539.41 321.516 1552.03 302.58 1552.13" stroke="white"/>
<path d="M43.4634 1638.32C40.2515 1638.28 36.9957 1637.89 33.7984 1637.14C21.9141 1634.31 11.7381 1626.39 5.88359 1615.4C0.0144827 1604.4 -0.890704 1591.48 3.41623 1579.96C8.05896 1567.43 19.184 1557.26 32.4552 1553.42C35.1269 1552.66 39.1273 1552.18 43.4634 1552.13H44.1642C48.1645 1552.13 51.9167 1552.5 54.457 1553.14C69.451 1557.09 80.8242 1568.13 85.6859 1583.43C86.4159 1585.75 86.8539 1590.12 86.8539 1595.14C86.8539 1600.17 86.4159 1604.55 85.6859 1606.86C79.7584 1625.6 63.1001 1638.22 44.1642 1638.32" stroke="white"/>
<path d="M130.303 1638.32C134.303 1638.32 138.055 1638.69 140.596 1639.33C155.59 1643.28 166.963 1654.32 171.824 1669.61C172.554 1671.94 172.992 1676.32 172.992 1681.33C172.992 1686.34 172.554 1690.74 171.824 1693.05C165.897 1711.79 149.239 1724.41 130.303 1724.51" stroke="white"/>
<path d="M129.602 1724.51C126.39 1724.47 123.134 1724.07 119.937 1723.33C108.053 1720.5 97.8768 1712.58 92.0223 1701.59C88.6498 1695.25 86.9124 1688.3 86.8686 1681.33C86.8394 1676.19 87.73 1671.05 89.555 1666.15C94.1977 1653.62 105.323 1643.45 118.594 1639.61C121.266 1638.85 125.266 1638.37 129.602 1638.32" stroke="white"/>
<path d="M43.4634 1724.51C40.2515 1724.47 36.9957 1724.07 33.7984 1723.33C21.9141 1720.5 11.7381 1712.58 5.88359 1701.59C0.0144827 1690.59 -0.890704 1677.66 3.41623 1666.15C8.05896 1653.62 19.184 1643.45 32.4552 1639.61C35.1269 1638.85 39.1273 1638.37 43.4634 1638.32H44.1642C48.1645 1638.32 51.9167 1638.69 54.457 1639.33C69.451 1643.28 80.8242 1654.32 85.6859 1669.61C86.4159 1671.94 86.8539 1676.31 86.8539 1681.33C86.8539 1686.36 86.4159 1690.74 85.6859 1693.05C79.7584 1711.79 63.1001 1724.41 44.1642 1724.51" stroke="white"/>
<path d="M130.303 1638.32H129.602C126.39 1638.28 123.134 1637.89 119.937 1637.14C108.053 1634.31 97.8768 1626.39 92.0223 1615.4C88.6498 1609.06 86.9124 1602.11 86.8686 1595.14C86.8394 1590 87.73 1584.86 89.555 1579.96C94.1977 1567.43 105.323 1557.26 118.594 1553.42C121.266 1552.66 125.266 1552.18 129.602 1552.13H130.303C134.303 1552.13 138.055 1552.5 140.596 1553.14C155.59 1557.09 166.963 1568.13 171.825 1583.43C172.555 1585.75 172.993 1590.13 172.993 1595.14C172.993 1600.15 172.555 1604.55 171.825 1606.86C165.897 1625.6 149.239 1638.22 130.303 1638.32Z" stroke="white"/>
<path d="M215.741 1638.32C212.529 1638.28 209.273 1637.89 206.076 1637.14C194.192 1634.31 184.016 1626.39 178.161 1615.4C174.788 1609.08 173.051 1602.11 173.007 1595.14C172.978 1590 173.869 1584.86 175.694 1579.96C180.336 1567.43 191.461 1557.26 204.733 1553.42C207.404 1552.65 211.405 1552.18 215.741 1552.13H216.442C220.442 1552.13 224.194 1552.5 226.734 1553.14C241.728 1557.09 253.102 1568.13 257.963 1583.43C258.693 1585.75 259.131 1590.13 259.131 1595.14C259.131 1600.15 258.693 1604.55 257.963 1606.86C252.036 1625.6 235.378 1638.22 216.442 1638.32" stroke="white"/>
<path d="M301.879 1638.32C298.667 1638.28 295.412 1637.89 292.214 1637.14C280.33 1634.31 270.154 1626.39 264.299 1615.4C260.927 1609.08 259.19 1602.11 259.146 1595.14C259.117 1590 260.007 1584.86 261.832 1579.96C266.475 1567.43 277.6 1557.26 290.871 1553.42C293.543 1552.65 297.543 1552.18 301.879 1552.13H302.58C306.58 1552.13 310.333 1552.5 312.873 1553.14C327.867 1557.09 339.24 1568.13 344.102 1583.43C344.832 1585.75 345.27 1590.13 345.27 1595.14C345.27 1600.15 344.832 1604.55 344.102 1606.86C338.174 1625.6 321.516 1638.22 302.58 1638.32" stroke="white"/>
<path d="M215.741 1724.51C212.529 1724.47 209.273 1724.07 206.076 1723.33C194.192 1720.5 184.016 1712.58 178.161 1701.59C174.788 1695.27 173.051 1688.3 173.007 1681.33C172.978 1676.19 173.869 1671.05 175.694 1666.15C180.336 1653.62 191.461 1643.45 204.733 1639.61C207.404 1638.84 211.405 1638.37 215.741 1638.32H216.442C220.442 1638.32 224.194 1638.69 226.734 1639.33C241.728 1643.28 253.102 1654.32 257.963 1669.61C258.693 1671.94 259.131 1676.32 259.131 1681.33C259.131 1686.34 258.693 1690.74 257.963 1693.05C252.036 1711.79 235.378 1724.41 216.442 1724.51" stroke="white"/>
<path d="M301.879 1724.51C298.667 1724.47 295.412 1724.07 292.214 1723.33C280.33 1720.5 270.154 1712.58 264.299 1701.59C260.927 1695.27 259.19 1688.3 259.146 1681.33C259.117 1676.19 260.007 1671.05 261.832 1666.15C266.475 1653.62 277.6 1643.45 290.871 1639.61C293.543 1638.84 297.543 1638.37 301.879 1638.32H302.58C306.58 1638.32 310.333 1638.69 312.873 1639.33C327.867 1643.28 339.24 1654.32 344.102 1669.61C344.832 1671.94 345.27 1676.32 345.27 1681.33C345.27 1686.34 344.832 1690.74 344.102 1693.05C338.174 1711.79 321.516 1724.41 302.58 1724.51" stroke="white"/>
<path d="M43.4634 1810.7C40.2515 1810.66 36.9957 1810.26 33.7984 1809.52C21.9141 1806.68 11.7381 1798.77 5.88359 1787.78C0.0144827 1776.78 -0.890704 1763.85 3.41623 1752.34C8.05896 1739.81 19.184 1729.64 32.4552 1725.8C35.1269 1725.04 39.1273 1724.56 43.4634 1724.51H44.1642C48.1645 1724.51 51.9167 1724.88 54.457 1725.52C69.451 1729.47 80.8242 1740.51 85.6859 1755.8C86.4159 1758.13 86.8539 1762.49 86.8539 1767.52C86.8539 1772.55 86.4159 1776.93 85.6859 1779.24C79.7584 1797.98 63.1001 1810.6 44.1642 1810.7" stroke="white"/>
<path d="M130.303 1810.7C134.303 1810.7 138.055 1811.07 140.596 1811.71C155.59 1815.65 166.963 1826.7 171.824 1841.99C172.554 1844.32 172.992 1848.7 172.992 1853.71C172.992 1858.72 172.554 1863.12 171.824 1865.42C165.897 1884.17 149.239 1896.79 130.303 1896.89" stroke="white"/>
<path d="M129.602 1896.89C126.39 1896.85 123.134 1896.45 119.937 1895.71C108.053 1892.87 97.8768 1884.96 92.0223 1873.97C88.6498 1867.63 86.9124 1860.68 86.8686 1853.71C86.8394 1848.57 87.73 1843.42 89.555 1838.53C94.1977 1826 105.323 1815.83 118.594 1811.99C121.266 1811.23 125.266 1810.75 129.602 1810.7" stroke="white"/>
<path d="M43.4634 1896.89C40.2515 1896.85 36.9957 1896.45 33.7984 1895.71C21.9141 1892.87 11.7381 1884.96 5.88359 1873.97C0.0144827 1862.97 -0.890704 1850.04 3.41623 1838.53C8.05896 1826 19.184 1815.83 32.4552 1811.99C35.1269 1811.23 39.1273 1810.75 43.4634 1810.7H44.1642C48.1645 1810.7 51.9167 1811.07 54.457 1811.71C69.451 1815.65 80.8242 1826.7 85.6859 1841.99C86.4159 1844.32 86.8539 1848.68 86.8539 1853.71C86.8539 1858.73 86.4159 1863.12 85.6859 1865.42C79.7584 1884.17 63.1001 1896.79 44.1642 1896.89" stroke="white"/>
<path d="M130.303 1810.7H129.602C126.39 1810.66 123.134 1810.26 119.937 1809.52C108.053 1806.68 97.8768 1798.77 92.0223 1787.78C88.6498 1781.44 86.9124 1774.49 86.8686 1767.52C86.8394 1762.38 87.73 1757.24 89.555 1752.34C94.1977 1739.81 105.323 1729.64 118.594 1725.8C121.266 1725.04 125.266 1724.56 129.602 1724.51H130.303C134.303 1724.51 138.055 1724.88 140.596 1725.52C155.59 1729.47 166.963 1740.51 171.825 1755.8C172.555 1758.13 172.993 1762.51 172.993 1767.52C172.993 1772.53 172.555 1776.93 171.825 1779.24C165.897 1797.98 149.239 1810.6 130.303 1810.7Z" stroke="white"/>
<path d="M215.741 1810.7C212.529 1810.66 209.273 1810.26 206.076 1809.52C194.192 1806.68 184.016 1798.77 178.161 1787.78C174.788 1781.46 173.051 1774.49 173.007 1767.52C172.978 1762.38 173.869 1757.24 175.694 1752.34C180.336 1739.81 191.461 1729.64 204.733 1725.8C207.404 1725.02 211.405 1724.56 215.741 1724.51H216.442C220.442 1724.51 224.194 1724.88 226.734 1725.52C241.728 1729.47 253.102 1740.51 257.963 1755.8C258.693 1758.13 259.131 1762.51 259.131 1767.52C259.131 1772.53 258.693 1776.93 257.963 1779.24C252.036 1797.98 235.378 1810.6 216.442 1810.7" stroke="white"/>
<path d="M301.879 1810.7C298.667 1810.66 295.412 1810.26 292.214 1809.52C280.33 1806.68 270.154 1798.77 264.299 1787.78C260.927 1781.46 259.19 1774.49 259.146 1767.52C259.117 1762.38 260.007 1757.24 261.832 1752.34C266.475 1739.81 277.6 1729.64 290.871 1725.8C293.543 1725.02 297.543 1724.56 301.879 1724.51H302.58C306.58 1724.51 310.333 1724.88 312.873 1725.52C327.867 1729.47 339.24 1740.51 344.102 1755.8C344.832 1758.13 345.27 1762.51 345.27 1767.52C345.27 1772.53 344.832 1776.93 344.102 1779.24C338.174 1797.98 321.516 1810.6 302.58 1810.7" stroke="white"/>
<path d="M215.741 1896.89C212.529 1896.85 209.273 1896.45 206.076 1895.71C194.192 1892.87 184.016 1884.96 178.161 1873.97C174.788 1867.65 173.051 1860.68 173.007 1853.71C172.978 1848.57 173.869 1843.42 175.694 1838.53C180.336 1826 191.461 1815.83 204.733 1811.99C207.404 1811.21 211.405 1810.75 215.741 1810.7H216.442C220.442 1810.7 224.194 1811.07 226.734 1811.71C241.728 1815.65 253.102 1826.7 257.963 1841.99C258.693 1844.32 259.131 1848.7 259.131 1853.71C259.131 1858.72 258.693 1863.12 257.963 1865.42C252.036 1884.17 235.378 1896.79 216.442 1896.89" stroke="white"/>
<path d="M301.879 1896.89C298.667 1896.85 295.412 1896.45 292.214 1895.71C280.33 1892.87 270.154 1884.96 264.299 1873.97C260.927 1867.65 259.19 1860.68 259.146 1853.71C259.117 1848.57 260.007 1843.42 261.832 1838.53C266.475 1826 277.6 1815.83 290.871 1811.99C293.543 1811.21 297.543 1810.75 301.879 1810.7H302.58C306.58 1810.7 310.333 1811.07 312.873 1811.71C327.867 1815.65 339.24 1826.7 344.102 1841.99C344.832 1844.32 345.27 1848.7 345.27 1853.71C345.27 1858.72 344.832 1863.12 344.102 1865.42C338.174 1884.17 321.516 1896.79 302.58 1896.89" stroke="white"/>
<path d="M43.4634 1983.08C40.2515 1983.04 36.9957 1982.64 33.7984 1981.9C21.9141 1979.06 11.7381 1971.15 5.88359 1960.16C0.0144827 1949.16 -0.890704 1936.23 3.41623 1924.72C8.05896 1912.19 19.184 1902.02 32.4552 1898.18C35.1269 1897.42 39.1273 1896.93 43.4634 1896.89H44.1642C48.1645 1896.89 51.9167 1897.26 54.457 1897.9C69.451 1901.84 80.8242 1912.89 85.6859 1928.18C86.4159 1930.5 86.8539 1934.87 86.8539 1939.9C86.8539 1944.92 86.4159 1949.31 85.6859 1951.61C79.7584 1970.36 63.1001 1982.98 44.1642 1983.08" stroke="white"/>
<path d="M130.303 1983.08C134.303 1983.08 138.055 1983.45 140.596 1984.09C155.59 1988.03 166.963 1999.08 171.825 2014.37C172.555 2016.69 172.993 2021.08 172.993 2026.09C172.993 2031.1 172.555 2035.49 171.825 2037.8C165.868 2056.62 149.107 2069.27 130.084 2069.27C126.711 2069.27 123.295 2068.87 119.937 2068.09C108.053 2065.25 97.8768 2057.33 92.0223 2046.35C88.6498 2040.01 86.9124 2033.06 86.8686 2026.09C86.8394 2020.95 87.73 2015.8 89.555 2010.91C94.1977 1998.38 105.323 1988.21 118.594 1984.37C121.266 1983.61 125.266 1983.12 129.602 1983.08" stroke="white"/>
<path d="M86.8539 2026.09C86.8539 2031.11 86.4159 2035.49 85.6859 2037.8C79.7292 2056.62 62.9687 2069.27 43.9452 2069.27C40.5726 2069.27 37.1563 2068.87 33.7984 2068.09C21.9141 2065.25 11.7381 2057.33 5.88359 2046.35C0.0144827 2035.35 -0.890704 2022.42 3.41623 2010.91C8.05896 1998.38 19.184 1988.21 32.4552 1984.37C35.1269 1983.61 39.1273 1983.12 43.4634 1983.08H44.1642C48.1645 1983.08 51.9167 1983.45 54.457 1984.09C69.451 1988.03 80.8242 1999.08 85.6859 2014.37C86.4159 2016.69 86.8539 2021.06 86.8539 2026.09Z" stroke="white"/>
<path d="M130.303 1983.08H129.602C126.39 1983.04 123.134 1982.64 119.937 1981.9C108.053 1979.06 97.8768 1971.15 92.0223 1960.16C88.6498 1953.82 86.9124 1946.87 86.8686 1939.9C86.8394 1934.76 87.73 1929.61 89.555 1924.72C94.1977 1912.19 105.323 1902.02 118.594 1898.18C121.266 1897.42 125.266 1896.93 129.602 1896.89H130.303C134.303 1896.89 138.055 1897.26 140.596 1897.9C155.59 1901.84 166.963 1912.89 171.825 1928.18C172.555 1930.5 172.993 1934.89 172.993 1939.9C172.993 1944.91 172.555 1949.31 171.825 1951.61C165.897 1970.36 149.239 1982.98 130.303 1983.08Z" stroke="white"/>
<path d="M215.741 1983.08C212.529 1983.04 209.273 1982.64 206.076 1981.9C194.192 1979.06 184.016 1971.15 178.161 1960.16C174.788 1953.83 173.051 1946.87 173.007 1939.9C172.978 1934.76 173.869 1929.61 175.694 1924.72C180.336 1912.19 191.461 1902.02 204.733 1898.18C207.404 1897.4 211.405 1896.93 215.741 1896.89H216.442C220.442 1896.89 224.194 1897.26 226.734 1897.9C241.728 1901.84 253.102 1912.89 257.963 1928.18C258.693 1930.5 259.131 1934.89 259.131 1939.9C259.131 1944.91 258.693 1949.31 257.963 1951.61C252.036 1970.36 235.378 1982.98 216.442 1983.08" stroke="white"/>
<path d="M301.879 1983.08C298.667 1983.04 295.412 1982.64 292.214 1981.9C280.33 1979.06 270.154 1971.15 264.299 1960.16C260.927 1953.83 259.19 1946.87 259.146 1939.9C259.117 1934.76 260.007 1929.61 261.832 1924.72C266.475 1912.19 277.6 1902.02 290.871 1898.18C293.543 1897.4 297.543 1896.93 301.879 1896.89H302.58C306.58 1896.89 310.333 1897.26 312.873 1897.9C327.867 1901.84 339.24 1912.89 344.102 1928.18C344.832 1930.5 345.27 1934.89 345.27 1939.9C345.27 1944.91 344.832 1949.31 344.102 1951.61C338.174 1970.36 321.516 1982.98 302.58 1983.08" stroke="white"/>
<path d="M259.131 2026.09C259.131 2031.11 258.693 2035.49 257.963 2037.8C252.007 2056.62 235.246 2069.27 216.223 2069.27C212.85 2069.27 209.434 2068.87 206.076 2068.09C194.192 2065.25 184.016 2057.33 178.161 2046.35C174.788 2040.02 173.051 2033.06 173.007 2026.09C172.978 2020.95 173.869 2015.8 175.694 2010.91C180.336 1998.38 191.461 1988.21 204.733 1984.37C207.404 1983.59 211.405 1983.12 215.741 1983.08H216.442C220.442 1983.08 224.194 1983.45 226.734 1984.09C241.728 1988.03 253.102 1999.08 257.963 2014.37C258.693 2016.69 259.131 2021.08 259.131 2026.09Z" stroke="white"/>
<path d="M302.58 1983.08C306.58 1983.08 310.333 1983.45 312.873 1984.09C327.867 1988.03 339.24 1999.08 344.102 2014.37C344.832 2016.69 345.27 2021.08 345.27 2026.09C345.27 2031.1 344.832 2035.49 344.102 2037.8C338.145 2056.62 321.385 2069.27 302.361 2069.27C298.988 2069.27 295.572 2068.87 292.214 2068.09C280.33 2065.25 270.154 2057.33 264.299 2046.35C260.927 2040.02 259.19 2033.06 259.146 2026.09C259.117 2020.95 260.007 2015.8 261.832 2010.91C266.475 1998.38 277.6 1988.21 290.871 1984.37C293.543 1983.59 297.543 1983.12 301.879 1983.08H302.58Z" stroke="white"/>
</g>
<defs>
<clipPath id="clip0_329_360">
<rect width="346" height="2070" fill="white"/>
</clipPath>
</defs>
</svg>
