<svg width="610" height="102" viewBox="0 0 610 102" fill="none" xmlns="http://www.w3.org/2000/svg">
<path d="M554.295 3.68356C556.505 -1.22785 563.495 -1.22785 565.705 3.68356C567.406 7.46424 572.261 8.56979 575.438 5.89994C579.566 2.43159 585.863 5.45707 585.718 10.8388C585.607 14.9815 589.5 18.0792 593.524 17.0489C598.751 15.7106 603.109 21.1623 600.638 25.9484C598.736 29.6326 600.896 34.1089 604.97 34.9224C610.261 35.9791 611.816 42.7773 607.509 46.0198C604.193 48.5159 604.193 53.4841 607.509 55.9802C611.816 59.2227 610.261 66.0209 604.97 67.0776C600.896 67.8911 598.736 72.3674 600.638 76.0516C603.109 80.8377 598.751 86.2894 593.524 84.951C589.5 83.9208 585.607 87.0185 585.718 91.1612C585.863 96.5429 579.566 99.5684 575.438 96.1001C572.261 93.4302 567.406 94.5358 565.705 98.3164C563.495 103.228 556.505 103.228 554.295 98.3164C552.594 94.5358 547.739 93.4302 544.562 96.1001C540.434 99.5684 534.137 96.5429 534.282 91.1612C534.393 87.0185 530.5 83.9208 526.476 84.951C521.249 86.2894 516.891 80.8377 519.362 76.0516C521.264 72.3674 519.104 67.8911 515.03 67.0776C509.739 66.0209 508.184 59.2227 512.491 55.9802C515.807 53.4841 515.807 48.5159 512.491 46.0198C508.184 42.7773 509.739 35.9791 515.03 34.9224C519.104 34.1089 521.264 29.6326 519.362 25.9484C516.891 21.1623 521.249 15.7106 526.476 17.0489C530.5 18.0792 534.393 14.9815 534.282 10.8388C534.137 5.45707 540.434 2.43159 544.562 5.89994C547.739 8.56979 552.594 7.46424 554.295 3.68356Z" fill="white"/>
<path d="M299.295 3.68356C301.505 -1.22785 308.495 -1.22785 310.705 3.68356C312.406 7.46424 317.261 8.56979 320.438 5.89994C324.566 2.43159 330.863 5.45707 330.718 10.8388C330.607 14.9815 334.5 18.0792 338.524 17.0489C343.751 15.7106 348.109 21.1623 345.638 25.9484C343.736 29.6326 345.896 34.1089 349.97 34.9224C355.261 35.9791 356.816 42.7773 352.509 46.0198C349.193 48.5159 349.193 53.4841 352.509 55.9802C356.816 59.2227 355.261 66.0209 349.97 67.0776C345.896 67.8911 343.736 72.3674 345.638 76.0516C348.109 80.8377 343.751 86.2894 338.524 84.951C334.5 83.9208 330.607 87.0185 330.718 91.1612C330.863 96.5429 324.566 99.5684 320.438 96.1001C317.261 93.4302 312.406 94.5358 310.705 98.3164C308.495 103.228 301.505 103.228 299.295 98.3164C297.594 94.5358 292.739 93.4302 289.562 96.1001C285.434 99.5684 279.137 96.5429 279.282 91.1612C279.393 87.0185 275.5 83.9208 271.476 84.951C266.249 86.2894 261.891 80.8377 264.362 76.0516C266.264 72.3674 264.104 67.8911 260.03 67.0776C254.739 66.0209 253.184 59.2227 257.491 55.9802C260.807 53.4841 260.807 48.5159 257.491 46.0198C253.184 42.7773 254.739 35.9791 260.03 34.9224C264.104 34.1089 266.264 29.6326 264.362 25.9484C261.891 21.1623 266.249 15.7106 271.476 17.0489C275.5 18.0792 279.393 14.9815 279.282 10.8388C279.137 5.45707 285.434 2.43159 289.562 5.89994C292.739 8.56979 297.594 7.46424 299.295 3.68356Z" fill="white"/>
<path d="M44.2951 3.68356C46.5053 -1.22785 53.4947 -1.22785 55.7049 3.68356C57.4062 7.46424 62.2613 8.56979 65.4384 5.89994C69.5657 2.43159 75.863 5.45707 75.7182 10.8388C75.6068 14.9815 79.5004 18.0792 83.5239 17.0489C88.7509 15.7106 93.1088 21.1623 90.6378 25.9484C88.7357 29.6326 90.8965 34.1089 94.9696 34.9224C100.261 35.9791 101.816 42.7773 97.5085 46.0198C94.1925 48.5159 94.1925 53.4841 97.5085 55.9802C101.816 59.2227 100.261 66.0209 94.9696 67.0776C90.8965 67.8911 88.7357 72.3674 90.6378 76.0516C93.1088 80.8377 88.7509 86.2894 83.5239 84.951C79.5004 83.9208 75.6068 87.0185 75.7182 91.1612C75.863 96.5429 69.5657 99.5684 65.4384 96.1001C62.2613 93.4302 57.4062 94.5358 55.7049 98.3164C53.4947 103.228 46.5053 103.228 44.2951 98.3164C42.5938 94.5358 37.7387 93.4302 34.5616 96.1001C30.4343 99.5684 24.137 96.5429 24.2818 91.1612C24.3932 87.0185 20.4996 83.9208 16.4761 84.951C11.2491 86.2894 6.89122 80.8377 9.3622 76.0516C11.2643 72.3674 9.10354 67.8911 5.03036 67.0776C-0.261022 66.0209 -1.81633 59.2227 2.49145 55.9802C5.80748 53.4841 5.80748 48.5159 2.49145 46.0198C-1.81633 42.7773 -0.261024 35.9791 5.03036 34.9224C9.10354 34.1089 11.2643 29.6326 9.3622 25.9484C6.89122 21.1623 11.2491 15.7106 16.4761 17.0489C20.4996 18.0792 24.3932 14.9815 24.2818 10.8388C24.137 5.45707 30.4343 2.43159 34.5616 5.89994C37.7387 8.56979 42.5938 7.46424 44.2951 3.68356Z" fill="white"/>
</svg>
