<svg width="66" height="41" viewBox="0 0 66 41" fill="none" xmlns="http://www.w3.org/2000/svg">
<path d="M18.4719 15.1033C18.4719 15.9118 18.5593 16.5646 18.7122 17.0425C18.887 17.5232 19.1055 18.0476 19.4114 18.6157C19.5207 18.7878 19.5644 18.9626 19.5644 19.1156C19.5644 19.3341 19.4333 19.5526 19.1492 19.7711L17.7754 20.686C17.6094 20.8058 17.4118 20.8741 17.2073 20.8827C16.9888 20.8827 16.7703 20.7734 16.5545 20.5768C16.2611 20.2612 15.9986 19.9182 15.7707 19.5526C15.5265 19.1337 15.3005 18.7045 15.0933 18.2661C13.3945 20.2709 11.2559 21.2733 8.68302 21.2733C6.85307 21.2733 5.39184 20.7516 4.32392 19.7055C3.256 18.6567 2.71247 17.2638 2.71247 15.5185C2.71247 13.6667 3.36525 12.159 4.69537 11.0283C6.0255 9.89481 7.78989 9.32671 10.035 9.32671C10.7779 9.32671 11.5399 9.39226 12.3456 9.50151C13.1541 9.61076 13.9844 9.78556 14.8529 9.98221V8.38988C14.8529 6.73201 14.5061 5.57668 13.8287 4.90206C13.1322 4.22471 11.9551 3.89968 10.2781 3.89968C9.51332 3.89968 8.72672 3.98435 7.921 4.18101C7.11527 4.37766 6.32867 4.61801 5.56665 4.92391C5.31819 5.03516 5.06273 5.13004 4.80189 5.20796C4.68956 5.24417 4.57292 5.26529 4.45502 5.27078C4.14912 5.27078 3.99617 5.05228 3.99617 4.59616V3.52823C3.99617 3.17863 4.03987 2.91643 4.14912 2.76348C4.3141 2.56519 4.52378 2.40886 4.76092 2.30736C5.52295 1.91406 6.43792 1.5863 7.50584 1.3241C8.61752 1.0395 9.76152 0.900864 10.909 0.911682C13.5037 0.911682 15.3992 1.50163 16.6201 2.67881C17.8191 3.85325 18.4282 5.64223 18.4282 8.04028V15.1033H18.4719ZM9.62257 18.4191C10.3409 18.4191 11.0811 18.288 11.8677 18.0258C12.6515 17.7636 13.3507 17.2856 13.938 16.6328C14.2876 16.2177 14.5498 15.7588 14.6809 15.2344C14.8092 14.7128 14.8994 14.0791 14.8994 13.3389V12.424C14.2377 12.2627 13.5675 12.1386 12.8919 12.0525C12.2125 11.9662 11.5283 11.9224 10.8434 11.9214C9.38222 11.9214 8.3143 12.2055 7.59324 12.7954C6.87492 13.3826 6.52805 14.2102 6.52805 15.3C6.52805 16.3242 6.78752 17.089 7.33377 17.6106C7.85544 18.1569 8.61747 18.4191 9.62257 18.4191ZM27.13 20.7734C26.7367 20.7734 26.4745 20.7079 26.2997 20.5549C26.1249 20.4238 25.9719 20.1179 25.8408 19.7055L20.7197 2.85088C20.6201 2.56827 20.5541 2.27492 20.5231 1.97687C20.5231 1.62727 20.6979 1.43062 21.0447 1.43062H23.1833C23.5957 1.43062 23.8798 1.4989 24.03 1.64912C24.2075 1.78022 24.3386 2.08613 24.467 2.50128L28.1324 16.9333L31.5328 2.50128C31.642 2.06428 31.7731 1.78022 31.9452 1.64912C32.2072 1.48842 32.5124 1.41215 32.8192 1.43062H34.5618C34.9769 1.43062 35.261 1.4989 35.4358 1.64912C35.6078 1.78022 35.7635 2.08613 35.8482 2.50128L39.2923 17.1081L43.0642 2.50128C43.1953 2.06428 43.3482 1.78022 43.5012 1.64912C43.7542 1.4885 44.0515 1.41202 44.3506 1.43062H46.3799C46.7268 1.43062 46.9262 1.60815 46.9262 1.97687C46.9262 2.08613 46.9016 2.19538 46.8798 2.32648C46.8455 2.51285 46.7943 2.69569 46.7268 2.87273L41.4746 19.7246C41.3435 20.1616 41.1905 20.443 41.0157 20.5741C40.7696 20.7319 40.4801 20.8084 40.1882 20.7926H38.3118C37.8994 20.7926 37.6153 20.727 37.4378 20.5741C37.2657 20.4211 37.1128 20.1371 37.0281 19.7001L33.6468 5.6395L30.2873 19.6782C30.1781 20.1152 30.0497 20.3993 29.8776 20.5522C29.7001 20.7052 29.3942 20.7707 29.0036 20.7707L27.13 20.7734ZM55.1418 21.3607C54.0084 21.3607 52.8749 21.2296 51.7851 20.9701C50.6953 20.7079 49.8459 20.4238 49.2778 20.0961C48.9282 19.9022 48.6906 19.6837 48.6032 19.487C48.518 19.2942 48.4734 19.086 48.4721 18.8752V17.7636C48.4721 17.3075 48.6469 17.089 48.9719 17.089C49.103 17.089 49.2341 17.1108 49.3652 17.1545C49.4963 17.1982 49.693 17.2856 49.9115 17.373C50.6516 17.7008 51.4574 17.9602 52.3095 18.135C53.1808 18.3098 54.0302 18.3972 54.9042 18.3972C56.2753 18.3972 57.346 18.1569 58.0861 17.6762C58.4409 17.4618 58.7327 17.1574 58.9318 16.7937C59.1309 16.4301 59.2302 16.0203 59.2196 15.6059C59.2276 15.3252 59.1798 15.0457 59.079 14.7836C58.9782 14.5216 58.8264 14.2821 58.6324 14.0791C58.2391 13.6667 57.4962 13.2952 56.4283 12.9456L53.2682 11.9624C51.6759 11.4626 50.4987 10.7224 49.7804 9.74186C49.0773 8.83694 48.6932 7.72496 48.6879 6.57906C48.6879 5.66408 48.8872 4.85836 49.2778 4.15915C49.6711 3.46268 50.1928 2.85088 50.8483 2.37291C51.5038 1.87036 52.2412 1.4989 53.1152 1.23943C53.9892 0.977232 54.9042 0.867981 55.8629 0.867981C56.3409 0.867981 56.8434 0.889831 57.3241 0.955382C57.8239 1.02093 58.2801 1.10833 58.7389 1.19573C59.1759 1.30498 59.5911 1.41423 59.9816 1.5426C60.3749 1.6737 60.6808 1.80481 60.8993 1.93591C61.1567 2.06548 61.381 2.25235 61.5548 2.48216C61.6956 2.69425 61.7637 2.94635 61.7488 3.20048V4.22471C61.7488 4.68356 61.574 4.92391 61.2462 4.92391C60.956 4.89064 60.675 4.8016 60.4186 4.66171C59.1015 4.07987 57.6741 3.79009 56.2343 3.81228C54.9916 3.81228 54.0084 4.0062 53.3337 4.42136C52.6564 4.83651 52.3095 5.46743 52.3095 6.36055C52.3095 6.97236 52.528 7.49676 52.965 7.90918C53.3993 8.32433 54.205 8.73949 55.3603 9.11094L58.4576 10.0887C60.0253 10.5913 61.1615 11.2905 61.8362 12.1836C62.5108 13.0767 62.8385 14.101 62.8385 15.2344C62.8385 16.1713 62.6419 17.0234 62.2732 17.7636C61.8799 18.5065 61.3555 19.1593 60.6808 19.6837C60.0035 20.2299 59.1978 20.6205 58.2609 20.9045C57.2777 21.2077 56.2562 21.3607 55.1418 21.3607ZM59.2633 31.958C52.091 37.2566 41.6685 40.0671 32.71 40.0671C20.1516 40.0671 8.8387 35.4239 0.289842 27.7054C-0.38478 27.0963 0.224292 26.266 1.03275 26.7467C10.2753 32.1082 21.6784 35.3584 33.472 35.3584C41.4309 35.3584 50.1709 33.7005 58.2172 30.3001C59.4163 29.7538 60.4405 31.084 59.2633 31.958ZM62.2513 28.5548C61.3336 27.3804 56.1879 27.9894 53.8554 28.2735C53.1589 28.3609 53.0497 27.7491 53.6833 27.2902C57.7802 24.4142 64.5183 25.2418 65.3021 26.2005C66.086 27.1837 65.0836 33.919 61.2462 37.1446C60.659 37.6472 60.0909 37.385 60.3531 36.7322C61.2271 34.5745 63.1663 29.7129 62.2513 28.5548Z" fill="white"/>
</svg>
