<svg width="46" height="66" viewBox="0 0 46 66" fill="none" xmlns="http://www.w3.org/2000/svg">
<path d="M33.3064 24.6245H20.7759V0.0958862H33.3064C40.0688 0.0958862 45.5693 5.59645 45.5693 12.3588C45.5693 19.1212 40.0688 24.6245 33.3064 24.6245ZM24.7934 20.6069H33.3064C37.8538 20.6069 41.5518 16.9062 41.5518 12.3615C41.5518 7.81689 37.8511 4.11616 33.3064 4.11616H24.7934V20.6069ZM24.7934 24.6245H12.2656C5.50328 24.6245 0.00273096 19.1239 0.00273096 12.3615C0.00273096 5.59918 5.50328 0.0958862 12.2656 0.0958862H24.7962V24.6245H24.7934ZM12.2656 4.11343C7.71824 4.11343 4.02026 7.81416 4.02026 12.3588C4.02026 16.9035 7.71824 20.6069 12.2656 20.6069H20.7786V4.11343H12.2656ZM24.7934 45.1328H12.2656C5.50328 45.1328 0.00273096 39.6322 0.00273096 32.8699C0.00273096 26.1075 5.50328 20.6069 12.2656 20.6069H24.7962V45.1328H24.7934ZM12.2656 24.6245C7.71824 24.6245 4.02026 28.3252 4.02026 32.8699C4.02026 37.4145 7.72097 41.1152 12.2656 41.1152H20.7786V24.6245H12.2656ZM12.3312 65.6438C5.53332 65.6438 0 60.1433 0 53.3809C0 46.6185 5.50055 41.118 12.2629 41.118H24.7934V53.2471C24.7934 60.0832 19.2027 65.6438 12.3312 65.6438ZM12.2656 45.1328C10.0797 45.1357 7.98414 46.0053 6.43846 47.551C4.89278 49.0967 4.02315 51.1922 4.02026 53.3782C4.02026 57.9256 7.74829 61.6236 12.3339 61.6236C16.9905 61.6236 20.7814 57.8655 20.7814 53.2443V45.1328H12.2656ZM33.3064 45.1328H33.0388C26.2764 45.1328 20.7759 39.6322 20.7759 32.8699C20.7759 26.1075 26.2764 20.6069 33.0388 20.6069H33.3064C40.0688 20.6069 45.5693 26.1075 45.5693 32.8699C45.5693 39.6322 40.0688 45.1328 33.3064 45.1328ZM33.0415 24.6245C28.4941 24.6245 24.7962 28.3252 24.7962 32.8699C24.7962 37.4145 28.4969 41.1152 33.0415 41.1152H33.3092C37.8565 41.1152 41.5545 37.4145 41.5545 32.8699C41.5545 28.3252 37.8511 24.6245 33.3064 24.6245H33.0415Z" fill="white"/>
</svg>
