<svg width="66" height="66" viewBox="0 0 66 66" fill="none" xmlns="http://www.w3.org/2000/svg">
<path d="M0 0H65.5478V65.5479H0V0ZM60.1783 49.9148C59.7004 46.9241 57.7531 44.4115 51.9767 42.0681C49.9665 41.1259 47.7324 40.4704 47.0688 38.9546C46.8202 38.0533 46.782 37.5617 46.9431 37.0291C47.3528 35.2648 49.4422 34.7349 51.0808 35.2266C52.146 35.5543 53.1292 36.3736 53.7465 37.6846C56.5705 35.8383 56.5705 35.8383 58.5396 34.612C57.8022 33.465 57.4363 32.9706 56.9392 32.4817C55.2186 30.5563 52.9271 29.573 49.1991 29.6577L47.2736 29.9008C45.4274 30.3514 43.6685 31.3346 42.6033 32.6456C39.4898 36.1715 40.3884 42.3167 44.1574 44.8566C47.8854 47.6424 53.3368 48.2542 54.0332 50.8789C54.6887 54.0743 51.6571 55.0985 48.6638 54.7298C46.4488 54.2382 45.2225 53.1293 43.8706 51.081L38.8726 53.9514C39.4461 55.2624 40.1016 55.8332 41.0848 56.9803C45.837 61.7762 57.7176 61.5304 59.8506 54.2382C59.9298 53.9924 60.5061 52.3127 60.0527 49.7318L60.1783 49.9148ZM35.6443 30.1275H29.5047C29.5047 35.4205 29.4801 40.6807 29.4801 45.9819C29.4801 49.3467 29.6522 52.4356 29.1032 53.3861C28.2019 55.2678 25.8805 55.0275 24.8262 54.697C23.7447 54.1617 23.1957 53.4243 22.5594 52.3619C22.3873 52.0751 22.2589 51.8266 22.2125 51.8266L17.2281 54.8991C18.0611 56.6198 19.2765 58.1001 20.8442 59.0423C23.1793 60.4352 26.3174 60.8858 29.603 60.1484C31.7415 59.5312 33.585 58.2612 34.5491 56.2948C35.942 53.7548 35.6471 50.6413 35.6334 47.1563C35.6662 41.5465 35.6334 35.9339 35.6334 30.2804L35.6443 30.1275Z" fill="white"/>
</svg>
