<svg width="54" height="67" viewBox="0 0 54 67" fill="none" xmlns="http://www.w3.org/2000/svg">
<path d="M28.3774 0.867981C27.9541 0.867981 27.5171 0.889831 27.0664 0.925338C15.524 1.83485 18.5858 14.0546 18.4083 18.1269C18.2007 21.1095 17.5889 23.4611 15.5404 26.3754C13.1232 29.246 9.73099 33.8864 8.12226 38.7235C7.36297 40.996 7.00244 43.323 7.33839 45.5217C7.21381 45.6225 7.1115 45.7481 7.03794 45.8904C6.32781 46.6224 5.80887 47.5292 5.2271 48.182C4.68358 48.7255 3.90243 48.9112 3.05027 49.2745C2.19538 49.6459 1.25309 50.0092 0.690446 51.1318C0.44463 51.648 0.318991 52.2079 0.329916 52.776C0.329916 53.3195 0.403661 53.8685 0.480137 54.24C0.638551 55.3297 0.796965 56.2283 0.589388 56.8893C-0.0907012 58.7466 -0.175371 60.0166 0.299872 60.9425C0.775115 61.8548 1.76111 62.2262 2.86728 62.584C5.07962 63.1303 8.08403 62.9527 10.4439 64.2228C12.973 65.4956 15.5404 66.0527 17.5889 65.5065C19.0255 65.1897 20.2382 64.2392 20.8883 62.9227C22.4915 62.9145 24.2477 62.188 27.061 62.0105C28.9701 61.852 31.36 62.7397 34.0995 62.5567C34.1678 62.9227 34.2716 63.0975 34.4108 63.4662L34.419 63.4744C35.487 65.5994 37.459 66.5662 39.5648 66.3996C41.6706 66.2357 43.913 64.9357 45.7293 62.8326C47.4527 60.7431 50.326 59.8719 52.2243 58.7275C53.1748 58.1839 53.9422 57.4465 53.9969 56.3977C54.0597 55.3052 53.4506 54.1826 52.0467 52.6394V52.3745L52.0385 52.3663C51.5742 51.82 51.3557 50.9051 51.1154 49.8371C50.8832 48.7419 50.6183 47.6903 49.7716 46.9802H49.7634C49.6022 46.8327 49.4274 46.7972 49.2499 46.6115C49.0972 46.5048 48.9171 46.4442 48.731 46.4367C49.9081 42.9461 49.452 39.4719 48.2584 36.3473C46.8027 32.4962 44.2571 29.1422 42.3179 26.8343C40.1438 24.0893 38.0134 21.4892 38.0571 17.6353C38.1281 11.7576 38.7017 0.884369 28.3774 0.867981ZM29.8223 10.168H29.8578C30.4396 10.168 30.9394 10.3373 31.4529 10.7088C31.9718 11.0775 32.3542 11.6156 32.6492 12.1646C32.936 12.872 33.0807 13.4182 33.1026 14.142C33.1026 14.0874 33.1189 14.0328 33.1189 13.9781V14.2649C33.1129 14.2463 33.1093 14.2271 33.108 14.2076L33.0971 14.142C33.0916 14.8058 32.9523 15.4616 32.6874 16.0703C32.5599 16.4127 32.3616 16.7245 32.1056 16.9853C32.0283 16.9416 31.9479 16.9032 31.8653 16.8706C31.5812 16.7477 31.3245 16.6958 31.0896 16.5073C30.895 16.4298 30.6939 16.3694 30.4887 16.327C30.6253 16.1632 30.8875 15.9638 30.9886 15.7862C31.1333 15.4366 31.2125 15.0652 31.2289 14.6883V14.6336C31.2351 14.2627 31.1788 13.8934 31.0623 13.5411C30.9394 13.1751 30.7864 12.9949 30.5625 12.6316C30.333 12.4513 30.1063 12.2711 29.8332 12.2711H29.7895C29.5355 12.2711 29.3088 12.353 29.0739 12.6316C28.8145 12.8846 28.6221 13.1981 28.514 13.5439C28.3689 13.8909 28.2858 14.2606 28.2682 14.6364V14.6883C28.2737 14.9314 28.29 15.1772 28.3228 15.4175C27.7957 15.2345 27.1265 15.0488 26.6649 14.8658C26.6374 14.6849 26.621 14.5025 26.6158 14.3195V14.2649C26.5943 13.5439 26.7343 12.8272 27.0255 12.1673C27.2494 11.5664 27.6591 11.0584 28.1999 10.7115C28.6668 10.3576 29.2364 10.1686 29.8223 10.168ZM21.7322 10.3291H21.8306C22.2184 10.3291 22.568 10.4602 22.9203 10.6979C23.3191 11.0502 23.6414 11.4845 23.8599 11.9679C24.1057 12.5114 24.2423 13.0604 24.2778 13.7897V13.8006C24.2969 14.1666 24.2942 14.3469 24.2723 14.5271V14.7456C24.1904 14.7647 24.1194 14.7948 24.0456 14.8112C23.6305 14.9614 23.2973 15.1799 22.9722 15.3574C23.005 15.1116 23.0077 14.8658 22.9804 14.6282V14.5872C22.9477 14.2239 22.8712 14.041 22.7565 13.6777C22.6713 13.3993 22.515 13.148 22.3031 12.9484C22.2358 12.8872 22.1568 12.8402 22.071 12.8102C21.9851 12.7801 21.894 12.7677 21.8033 12.7736H21.7459C21.552 12.79 21.3908 12.8829 21.2379 13.1342C21.0636 13.3456 20.9503 13.6006 20.9101 13.8716C20.8363 14.166 20.815 14.4711 20.8473 14.7729V14.8139C20.8801 15.1826 20.9484 15.3602 21.0658 15.7262C21.1914 16.0921 21.3335 16.2724 21.5192 16.4581C21.5465 16.4827 21.5738 16.5073 21.6121 16.5237C21.4209 16.6794 21.2925 16.7149 21.1314 16.8951C21.0292 16.9855 20.9063 17.0493 20.7736 17.0809C20.4896 16.739 20.2382 16.3714 20.0225 15.9829C19.7642 15.4089 19.6204 14.7901 19.5991 14.1611C19.5539 13.5446 19.6281 12.9251 19.8176 12.3366C19.9681 11.8 20.2316 11.3017 20.5906 10.8754C20.9402 10.5121 21.3007 10.3291 21.7322 10.3291ZM25.4741 14.9887C26.3809 14.9887 27.4761 15.1662 28.7953 16.0785C29.5956 16.6247 30.2238 16.8132 31.6686 17.3567H31.6768C32.3733 17.7282 32.783 18.0833 32.9824 18.4465V18.0887C33.0804 18.2873 33.135 18.5045 33.1425 18.7259C33.1501 18.9472 33.1104 19.1676 33.0261 19.3724C32.6901 20.2191 31.6167 21.1286 30.1227 21.6722V21.6776C29.3908 22.0463 28.7544 22.5871 28.006 22.9477C27.2522 23.3164 26.4 23.7452 25.2419 23.6769C24.8259 23.6985 24.4098 23.6362 24.0183 23.4939C23.7158 23.3293 23.4222 23.1488 23.1388 22.9531C22.6062 22.5844 22.1474 22.0463 21.4673 21.6831V21.6694H21.4536C20.3611 20.9975 19.7712 20.271 19.58 19.7302C19.3888 18.9982 19.5663 18.4465 20.1071 18.0914C20.7189 17.7227 21.145 17.3513 21.4263 17.1737C21.7104 16.9716 21.8169 16.8951 21.907 16.8159H21.9125V16.8077C22.3741 16.256 23.1033 15.524 24.204 15.1662C24.5837 15.0679 25.007 14.9887 25.4768 14.9887H25.4741ZM33.1217 20.8391C34.0995 24.7093 36.3883 30.3303 37.8605 33.0561C38.6416 34.5146 40.1957 37.5873 40.8703 41.3155C41.2964 41.3019 41.7716 41.3647 42.2715 41.4903C44.0359 36.9264 40.7802 32.021 39.2971 30.6581C38.6962 30.1118 38.6635 29.7431 38.9612 29.7431C40.5726 31.2016 42.6894 34.0367 43.4569 37.2732C43.8119 38.7345 43.8939 40.2886 43.5142 41.8345C43.6972 41.9109 43.8829 41.9984 44.0741 42.0175C46.8928 43.476 47.9334 44.5794 47.4336 46.2155V46.098C47.2697 46.0898 47.1058 46.098 46.942 46.098H46.8983C47.3107 44.8225 46.4012 43.8447 43.9894 42.7549C41.4903 41.6624 39.4938 41.8372 39.1551 44.025C39.1332 44.1424 39.1196 44.2052 39.1059 44.3937C38.9202 44.4565 38.7263 44.5384 38.5351 44.5685C37.3606 45.3005 36.727 46.3957 36.3692 47.8105C36.0141 49.2663 35.9049 50.9679 35.8093 52.9153V52.9235C35.7546 53.8357 35.3449 55.2123 34.938 56.6107C30.8411 59.5386 25.16 60.8114 20.3311 57.523C20.0281 56.9933 19.6591 56.5041 19.2331 56.0672C19.0296 55.7282 18.7764 55.4216 18.482 55.1577C18.9791 55.1577 19.4052 55.0757 19.7521 54.9747C20.1448 54.7925 20.4521 54.4657 20.6097 54.0624C20.9047 53.3332 20.6097 52.1587 19.6674 50.8859C18.7251 49.6104 17.1246 48.1683 14.7839 46.7317C13.0632 45.6392 12.0908 44.3554 11.6429 42.9188C11.1922 41.4603 11.2523 39.9554 11.6019 38.4258C12.2711 35.5034 13.9863 32.6628 15.0816 30.8793C15.3738 30.7018 15.1826 31.248 13.9672 33.5396C12.8856 35.5908 10.8535 40.3596 13.634 44.0659C13.739 41.3617 14.3379 38.6995 15.4011 36.2108C16.9416 32.7202 20.1618 26.6404 20.4158 21.8224C20.5469 21.9207 21.0084 22.1911 21.2051 22.3741C21.8005 22.7374 22.243 23.2836 22.8166 23.6441C23.3901 24.1931 24.1194 24.5591 25.2092 24.5591C25.3157 24.5673 25.414 24.5755 25.5096 24.5755C26.6349 24.5755 27.5034 24.2095 28.2327 23.8435C29.0248 23.4775 29.653 22.9313 30.2538 22.751H30.2675C31.543 22.3823 32.5481 21.653 33.1189 20.8391H33.1217ZM39.0895 45.3059C39.1906 46.9447 40.0264 48.7064 41.4985 49.0669C43.1045 49.4329 45.4152 48.1574 46.3903 46.9775L46.9665 46.9502C47.8269 46.931 48.5425 46.9775 49.2799 47.6821L49.2881 47.6903C49.8562 48.2339 50.1212 49.1379 50.3561 50.0829C50.5882 51.1755 50.7767 52.2133 51.4732 52.9945C52.8006 54.4339 53.2348 55.469 53.2103 56.1082L53.2185 56.089V56.1382L53.2103 56.1082C53.1693 56.8237 52.705 57.187 51.8501 57.7305C50.1294 58.8258 47.0813 59.6752 45.1393 62.0186C43.4514 64.0316 41.3975 65.1323 39.5784 65.2716C37.7649 65.4164 36.1998 64.7253 35.2794 62.8189L35.2657 62.8107C34.6922 61.7182 34.938 60.0112 35.4187 58.1949C35.8994 56.3704 36.5877 54.524 36.6833 53.0136C36.7843 51.0635 36.8909 49.3674 37.2159 48.0591C37.5436 46.789 38.0571 45.8822 38.9666 45.3715L39.0895 45.3114V45.3059ZM9.55345 45.4398H9.58077C9.72552 45.4398 9.86755 45.4534 10.0096 45.478C11.0365 45.6282 11.9379 46.3875 12.8037 47.5319L15.2891 52.0768L15.2973 52.085C15.961 53.5408 17.3567 54.9911 18.5448 56.5561C19.7302 58.1894 20.6479 59.6452 20.5359 60.8442V60.8606C20.3803 62.8927 19.2249 63.9961 17.4632 64.3949C15.7016 64.7636 13.3117 64.4003 10.9218 63.1275C8.27795 61.6636 5.13697 61.8466 3.11855 61.4833C2.11071 61.3031 1.45247 60.9371 1.14384 60.3908C0.843397 59.8445 0.835203 58.7466 1.47979 57.0313V57.0204L1.48525 57.0122C1.80481 56.1 1.56719 54.9583 1.4115 53.9586C1.26128 52.8634 1.18481 52.0194 1.52895 51.3912C1.96595 50.479 2.61054 50.2987 3.41353 49.9355C4.21653 49.5667 5.16155 49.3837 5.91266 48.6518H5.91812V48.6463C6.61733 47.9143 7.13354 47.0048 7.74261 46.3575C8.26156 45.8085 8.7805 45.4398 9.55345 45.4398ZM29.1067 20.6561C27.9186 21.2051 26.5256 22.1174 25.0426 22.1174C23.5622 22.1174 22.3932 21.3881 21.5465 20.8446C21.1259 20.4786 20.7818 20.1126 20.5277 19.9296C20.0798 19.5636 20.1344 19.0201 20.3256 19.0201C20.6233 19.0638 20.678 19.3861 20.8692 19.5663C21.1314 19.7466 21.4564 20.1126 21.8524 20.4759C22.6499 21.0221 23.7097 21.7514 25.0398 21.7514C26.3645 21.7514 27.9159 21.0221 28.8582 20.4786C29.3908 20.1099 30.0736 19.5663 30.628 19.2031C31.0541 18.8316 31.035 18.4738 31.3901 18.4738C31.7397 18.5175 31.4829 18.8398 30.9886 19.3806C30.3827 19.8388 29.7537 20.2654 29.104 20.6588L29.1067 20.6561ZM26.1515 16.3325V16.2724C26.1351 16.2178 26.187 16.1577 26.2307 16.1358C26.4328 16.0184 26.7223 16.0621 26.9408 16.1468C27.1129 16.1468 27.3778 16.3298 27.3505 16.5155C27.3341 16.6493 27.1183 16.6958 26.9818 16.6958C26.8315 16.6958 26.7305 16.5783 26.5967 16.51C26.4546 16.4609 26.1979 16.4882 26.1515 16.3325ZM24.6465 16.3325C24.5919 16.4909 24.3379 16.4663 24.1931 16.5128C24.0648 16.581 23.9582 16.6985 23.8107 16.6985C23.6742 16.6985 23.4557 16.6439 23.4393 16.5128C23.412 16.3325 23.6796 16.1495 23.849 16.1495C24.0675 16.0648 24.3515 16.0211 24.5564 16.1358C24.6083 16.1604 24.6547 16.2178 24.6383 16.2724V16.327H24.6465V16.3325Z" fill="white"/>
</svg>
