<svg width="66" height="45" viewBox="0 0 66 45" fill="none" xmlns="http://www.w3.org/2000/svg">
<path d="M44.8062 4.92434C44.4921 4.92434 44.279 4.96258 44.0578 5.01448V5.04998H44.096C44.2435 5.33403 44.4948 5.54161 44.6805 5.79561C44.828 6.08786 44.9536 6.3801 45.1011 6.66961L45.1394 6.62864C45.3961 6.44838 45.5217 6.15887 45.5217 5.71914C45.4125 5.59077 45.3961 5.4624 45.3032 5.33676C45.194 5.15377 44.9591 5.06364 44.8116 4.91888L44.8062 4.92434ZM15.7593 40.9605H13.2274C13.1562 36.9367 12.9102 32.918 12.49 28.9156H12.4682L8.61709 40.9605H6.69156L2.86781 28.9156H2.8405C2.54141 32.9243 2.3638 36.9411 2.30791 40.9605H0C0.150219 35.5908 0.5244 30.5544 1.11981 25.8566H4.26075L7.90697 36.9564H7.92882L11.6078 25.8566H14.5985C15.2595 31.3601 15.6473 36.3993 15.7675 40.9605H15.7593ZM26.7307 29.817C25.6983 35.4024 24.3382 39.4665 22.6557 41.9983C21.3393 43.9539 19.8972 44.929 18.3321 44.929C17.9143 44.929 17.4035 44.8033 16.7863 44.552V43.2028C17.0867 43.2492 17.4418 43.2738 17.8405 43.2738C18.5725 43.2738 19.1597 43.069 19.6076 42.6675C20.1457 42.1759 20.4134 41.6241 20.4134 41.0151C20.4134 40.5917 20.2031 39.7314 19.7852 38.4368L17.0157 29.817H19.5011L21.4867 36.2627C21.9347 37.7267 22.1231 38.7481 22.0466 39.3299C23.1391 36.4238 23.8984 33.2474 24.3272 29.817H26.7307ZM60.3934 40.9605H53.2102V25.8566H55.6274V39.1032H60.3934V40.9605ZM51.3256 41.3292L48.5507 39.9635C48.7965 39.756 49.0341 39.532 49.2472 39.2807C50.4298 37.8987 51.017 35.8448 51.017 33.1272C51.017 28.129 49.056 25.6272 45.1312 25.6272C43.2084 25.6272 41.7062 26.2609 40.6246 27.5309C39.4502 28.9184 38.8602 30.9613 38.8602 33.6626C38.8602 36.3173 39.3792 38.2674 40.428 39.5074C41.3839 40.6272 42.8233 41.1871 44.7515 41.1871C45.4726 41.1871 46.1335 41.097 46.7317 40.9195L50.3506 43.028L51.3338 41.3292H51.3256ZM42.3344 37.937C41.7198 36.9537 41.4139 35.3696 41.4139 33.1955C41.4139 29.3909 42.572 27.4872 44.8826 27.4872C46.0926 27.4872 46.9857 27.9433 47.5511 28.8528C48.1629 29.8415 48.4688 31.4093 48.4688 33.5588C48.4688 37.3934 47.3107 39.3162 45.0001 39.3162C43.7847 39.3162 42.897 38.8601 42.3289 37.9506L42.3344 37.937ZM37.806 36.7762C37.806 38.0599 37.3362 39.1141 36.3966 39.9335C35.4571 40.7529 34.2034 41.1626 32.6166 41.1626C31.1335 41.1626 29.7105 40.6928 28.3203 39.756L28.9676 38.4559C30.1639 39.0568 31.2428 39.3517 32.2178 39.3517C33.1246 39.3517 33.8375 39.1524 34.3564 38.7509C34.6158 38.5553 34.8252 38.3012 34.9676 38.0093C35.11 37.7174 35.1813 37.3959 35.1758 37.0712C35.1758 36.1698 34.5476 35.4051 33.4059 34.7632C32.3462 34.1815 30.2295 32.9688 30.2295 32.9688C29.0769 32.1303 28.5033 31.2317 28.5033 29.7541C28.5033 28.5251 28.9321 27.5418 29.787 26.7907C30.6474 26.0314 31.7535 25.6573 33.1191 25.6573C34.5175 25.6573 35.7958 26.0287 36.9429 26.7771L36.3611 28.0771C35.4445 27.6745 34.4561 27.4608 33.4551 27.449C32.6821 27.449 32.084 27.6347 31.6688 28.0116C31.4582 28.1861 31.2883 28.4047 31.1713 28.652C31.0543 28.8993 30.9929 29.1692 30.9915 29.4428C30.9915 30.3386 31.6306 31.1088 32.8105 31.7643C33.8839 32.3516 36.0525 33.5943 36.0525 33.5943C37.2351 34.4273 37.8223 35.315 37.8223 36.7844L37.806 36.7762ZM63.4306 20.7929C61.9693 20.7547 60.8359 20.9022 59.8881 21.3064C59.615 21.4156 59.178 21.4156 59.1398 21.7625C59.29 21.9073 59.3118 22.1449 59.4402 22.347C59.6587 22.713 60.0356 23.2019 60.3852 23.4586C60.7676 23.759 61.15 24.0486 61.5514 24.3053C62.2616 24.7423 63.0673 25.0018 63.7638 25.4415C64.1598 25.6982 64.564 26.0232 64.9655 26.2964C65.1649 26.4329 65.2933 26.6787 65.55 26.7661V26.7115C65.4244 26.5476 65.3861 26.31 65.2632 26.127C65.0802 25.944 64.8972 25.7802 64.717 25.5999C64.1807 24.8932 63.5408 24.2717 62.8188 23.7563C62.2343 23.3575 60.956 22.8004 60.7157 22.1312L60.6802 22.093C61.0789 22.0575 61.5542 21.9127 61.9366 21.8035C62.5566 21.6396 63.1247 21.6751 63.7665 21.514C64.056 21.4402 64.3483 21.3501 64.6405 21.2572V21.0933C64.3127 20.7656 64.0669 20.3204 63.7283 20.0145C62.7829 19.1882 61.7748 18.4367 60.713 17.7667C60.1394 17.4007 59.4129 17.1658 58.8093 16.8544C58.5908 16.7452 58.2248 16.6906 58.0991 16.5076C57.7714 16.1088 57.5802 15.5789 57.3481 15.1037C56.8117 14.0633 56.3134 13.0038 55.8541 11.9273C55.5263 11.2117 55.3269 10.4988 54.9254 9.84333C53.0409 6.7379 51.0006 4.85606 47.8624 3.0152C47.1878 2.63283 46.3794 2.46895 45.5245 2.26684C45.0684 2.24499 44.6122 2.21221 44.1588 2.19309C43.8584 2.06473 43.5689 1.71786 43.3122 1.55125C42.2743 0.895751 39.5867 -0.524499 38.822 1.3546C38.3304 2.53996 39.5512 3.70894 39.9746 4.30981C40.2887 4.72769 40.6847 5.20566 40.9032 5.67544C41.0316 5.99226 41.0671 6.31728 41.1954 6.64776C41.485 7.45075 41.7608 8.3466 42.1432 9.09769C42.3426 9.48007 42.5611 9.88156 42.8178 10.2257C42.9653 10.4251 43.2166 10.5179 43.2739 10.8457C43.0172 11.2171 43.0008 11.7579 42.8533 12.2113C42.1978 14.2789 42.4546 16.8353 43.3832 18.3566C43.6754 18.81 44.3719 19.8151 45.3032 19.43C46.1226 19.1023 45.9424 18.0644 46.1772 17.1494C46.2319 16.9309 46.1964 16.7862 46.3083 16.6387V16.6796C46.5651 17.1931 46.8218 17.682 47.0567 18.1955C47.6193 19.0913 48.6026 20.02 49.4247 20.64C49.8617 20.9677 50.2086 21.5358 50.7548 21.7379V21.6833H50.7139C50.5964 21.5249 50.4407 21.4484 50.2932 21.32C49.9469 20.981 49.6273 20.6158 49.3373 20.2275C48.5678 19.1761 47.8854 18.0635 47.2971 16.9009C46.9966 16.3273 46.7453 15.7101 46.505 15.1447C46.3957 14.9262 46.3957 14.5984 46.2127 14.4892C45.9396 14.8879 45.5381 15.2348 45.3388 15.7264C44.9919 16.513 44.9564 17.4799 44.8253 18.485C44.7515 18.5041 44.787 18.485 44.7515 18.5232C44.167 18.3812 43.9677 17.7749 43.7492 17.2669C43.2029 15.9695 43.1128 13.8856 43.5853 12.3916C43.7137 12.0092 44.2599 10.802 44.0414 10.436C43.9267 10.0891 43.5662 9.88976 43.3668 9.60844C43.1103 9.24229 42.8907 8.85164 42.7113 8.44219C42.2743 7.42071 42.0558 6.28997 41.5806 5.26848C41.362 4.79598 40.9797 4.30162 40.6683 3.86735C40.3214 3.37573 39.9391 3.02886 39.6632 2.4471C39.5731 2.24772 39.4447 1.91724 39.5895 1.69874C39.6277 1.55125 39.7042 1.4939 39.8462 1.45293C40.0866 1.25628 40.7612 1.51301 40.9988 1.62226C41.6734 1.89539 42.2415 2.15213 42.8069 2.5345C43.0636 2.71476 43.3395 3.06163 43.6672 3.15176H44.0496C44.6341 3.28013 45.2923 3.19 45.8386 3.35115C46.8082 3.66251 47.6822 4.1159 48.466 4.60752C50.8814 6.15044 52.8459 8.30441 54.1607 10.8512C54.3792 11.2718 54.4748 11.6569 54.6742 12.0939C55.0565 12.9952 55.529 13.9047 55.9169 14.776C56.2993 15.6363 56.668 16.513 57.217 17.2259C57.4901 17.6083 58.588 17.8077 59.0797 18.007C59.4429 18.1709 60.0083 18.3211 60.336 18.5205C60.9642 18.9029 61.576 19.3399 62.166 19.7605C62.4664 19.9681 63.3759 20.4242 63.4306 20.7929Z" fill="white"/>
</svg>
