<svg width="50" height="66" viewBox="0 0 50 66" fill="none" xmlns="http://www.w3.org/2000/svg">
<path d="M19.1187 33.193C19.8431 33.193 20.5378 33.4807 21.05 33.9929C21.5622 34.5051 21.85 35.1998 21.85 35.9242V65.968H2.73125C2.00688 65.968 1.31217 65.6802 0.799964 65.168C0.287756 64.6558 0 63.9611 0 63.2367V35.9242C0 35.1998 0.287756 34.5051 0.799964 33.9929C1.31217 33.4807 2.00688 33.193 2.73125 33.193H19.1187ZM13.6562 31.8273V19.5367C13.6562 18.8123 13.944 18.1176 14.4562 17.6054C14.9684 17.0932 15.6631 16.8055 16.3875 16.8055H32.775C33.4994 16.8055 34.1941 17.0932 34.7063 17.6054C35.2185 18.1176 35.5062 18.8123 35.5062 19.5367V65.968H23.2156V35.9242C23.2156 34.8377 22.784 33.7956 22.0157 33.0273C21.2474 32.259 20.2053 31.8273 19.1187 31.8273H13.6562ZM27.3125 15.4398V3.14922C27.3125 2.42485 27.6003 1.73014 28.1125 1.21793C28.6247 0.705725 29.3194 0.417969 30.0437 0.417969L46.4312 0.417969C47.1556 0.417969 47.8503 0.705725 48.3625 1.21793C48.8747 1.73014 49.1625 2.42485 49.1625 3.14922V63.2367C49.1625 63.9611 48.8747 64.6558 48.3625 65.168C47.8503 65.6802 47.1556 65.968 46.4312 65.968H36.8719V19.5367C36.8719 18.4502 36.4402 17.4081 35.6719 16.6398C34.9036 15.8715 33.8616 15.4398 32.775 15.4398H27.3125Z" fill="white"/>
</svg>
