<svg width="66" height="66" viewBox="0 0 66 66" fill="none" xmlns="http://www.w3.org/2000/svg">
<path d="M38.8897 1.13298L41.3356 1.67651L43.3195 2.38311L44.9229 3.19841L46.1459 4.06807L47.0699 4.99208L47.7493 5.91608L48.1841 6.81292L48.4559 7.62822L48.5646 8.33481L48.619 8.87835L48.5918 9.23165V23.744L48.4559 25.4562L48.1026 26.9509L47.5319 28.201L46.8253 29.2337L46.01 30.0762L45.1132 30.7556L44.162 31.272L43.2108 31.6524L42.314 31.9242L41.4987 32.1145L40.7921 32.2232L40.2214 32.2775H23.997L22.1218 32.4134L20.5183 32.7939L19.1595 33.3918L18.0453 34.1255L17.1484 34.9952L16.4147 35.9464L15.8711 36.9247L15.4635 37.9303L15.1917 38.8815L15.0015 39.7511L14.8928 40.4849L14.8384 41.0556V49.3717H8.77805L8.20734 49.2901L7.44639 49.0999L6.57674 48.7738L5.62556 48.2846L4.6472 47.578L3.66884 46.5997L2.71766 45.3495L1.84801 43.7461L1.08706 41.7622L0.516356 39.3706L0.135883 36.5171L0 33.1743L0.16306 29.8588L0.597886 27.0324L1.25012 24.668L2.11978 22.7385L3.09813 21.1894L4.1852 19.9936L5.32662 19.0968L6.46803 18.4446L7.5551 18.0097L8.53346 17.738L9.40311 17.6021L10.0553 17.5749H10.4902L10.6532 17.6021H32.8294V15.3464H16.9582L16.931 7.87281L16.8767 6.86727L17.0126 5.94326L17.3115 5.10078L17.7735 4.33983L18.4529 3.63324L19.2954 3.00817L20.3281 2.46464L21.5239 1.97546L22.9099 1.56781L24.4861 1.24169L26.2254 0.96992L28.155 0.806859L30.2476 0.698152L32.5304 0.643799L35.9818 0.779682L38.8897 1.13298ZM21.7685 6.51397L21.1434 7.4108L20.926 8.52505L21.1434 9.6393L21.7685 10.5633L22.6653 11.1612L23.7795 11.4058L24.8938 11.1612L25.7906 10.5633L26.4157 9.6393L26.6331 8.52505L26.4157 7.4108L25.7906 6.51397L24.8938 5.91608L23.7795 5.67149L22.6653 5.91608L21.7685 6.51397ZM57.3427 17.2488L58.1036 17.4118L58.9733 17.738L59.9244 18.2271L60.9028 18.9609L61.8812 19.9121L62.8323 21.1894L63.702 22.7928L64.4629 24.7767L65.0336 27.1683L65.4141 29.9947L65.55 33.3374L65.3869 36.6801L64.9521 39.5065L64.2999 41.8437L63.4302 43.7733L62.4519 45.3223L61.3648 46.5453L60.2234 47.4421L59.082 48.0944L57.9949 48.5292L57.0165 48.7738L56.1469 48.9097L55.4947 48.964L55.0598 48.9369H32.7206V51.1653H48.5918L48.619 58.6661L48.6733 59.6445L48.5374 60.5685L48.2385 61.411L47.7765 62.1991L47.0971 62.8785L46.2546 63.5308L45.2219 64.0743L44.0261 64.5363L42.6401 64.9439L41.0639 65.2972L39.3246 65.5418L37.395 65.7321L35.3024 65.8408L33.0196 65.868L29.5682 65.7592L26.6603 65.3788L24.2144 64.8352L22.2305 64.1558L20.6271 63.3405L19.4041 62.4437L18.4801 61.5197L17.8007 60.5957L17.3659 59.6988L17.0941 58.8835L16.9854 58.2041L16.931 57.6606L16.9582 57.3073V42.7949L17.0941 41.0556L17.4474 39.5881L18.0181 38.3379L18.7247 37.3052L19.54 36.4356L20.4368 35.7833L21.388 35.2398L22.3392 34.8593L23.236 34.5875L24.0513 34.4245L24.7579 34.3158L25.3286 34.2614L25.6819 34.2342H41.5531L43.4282 34.0984L45.0317 33.7179L46.3905 33.1472L47.5047 32.3862L48.4016 31.5166L49.1353 30.5654L49.6789 29.587L50.0865 28.6087L50.3583 27.6575L50.5485 26.7878L50.6572 26.0269L50.7116 25.4562V17.1401H56.3915L56.772 17.1673L57.3427 17.2488ZM39.7594 55.9756L39.1343 56.8725L38.9169 57.9867L39.1343 59.1009L39.7594 59.9978L40.6562 60.6228L41.7705 60.8403L42.8847 60.6228L43.7815 59.9978L44.4066 59.1009L44.624 57.9867L44.4066 56.8725L43.7815 55.9756L42.8847 55.3506L41.7705 55.1331L40.6562 55.3506L39.7594 55.9756Z" fill="white"/>
</svg>
