<svg width="66" height="59" viewBox="0 0 66 59" fill="none" xmlns="http://www.w3.org/2000/svg">
<path d="M38.8644 29.1962C38.8644 30.8154 38.2214 32.3683 37.0767 33.5135C35.932 34.6586 34.3794 35.3024 32.7602 35.3031C31.1406 35.3031 29.5873 34.6597 28.442 33.5144C27.2968 32.3692 26.6534 30.8158 26.6534 29.1962C26.6534 27.577 27.2964 26.0241 28.4411 24.8789C29.5857 23.7337 31.1383 23.09 32.7575 23.0893C34.3772 23.0893 35.9305 23.7327 37.0757 24.878C38.221 26.0232 38.8644 27.5765 38.8644 29.1962ZM46.0965 0C42.4203 0 37.6108 2.62192 32.7466 7.16113C27.8851 2.6465 23.0728 0.0546233 19.3994 0.0546233C18.2796 0.0546233 17.2609 0.308622 16.3788 0.813888C12.6234 2.97971 11.7822 9.72842 13.7213 18.1978C5.40769 20.7651 0 24.87 0 29.1962C0 33.5388 5.43501 37.6546 13.7732 40.2028C11.8505 48.7049 12.7081 55.4646 16.4716 57.6277C17.3456 58.1384 18.3561 58.3787 19.4813 58.3787C23.1548 58.3787 27.9671 55.7568 32.8312 51.2122C37.6927 55.7295 42.505 58.3214 46.1784 58.3214C47.2982 58.3214 48.3169 58.0756 49.1991 57.5703C52.9517 55.4072 53.7956 48.6585 51.8565 40.1864C60.1401 37.641 65.5478 33.5278 65.5478 29.1962C65.5478 24.8536 60.1128 20.7378 51.7746 18.1841C53.6973 9.69019 52.8397 2.92508 49.0762 0.759265C48.2077 0.25673 47.1999 0.00273117 46.0965 0ZM46.0828 2.97697V2.99336C46.6973 2.99336 47.1917 3.11353 47.6068 3.34022C49.4258 4.38353 50.2151 8.35192 49.6006 13.4565C49.4531 14.7128 49.2127 16.0374 48.9178 17.3894C46.2959 16.7448 43.4391 16.2505 40.4321 15.9309C38.6295 13.4592 36.7587 11.2142 34.8742 9.24774C39.2222 5.20561 43.3052 2.9879 46.0856 2.97971L46.0828 2.97697ZM19.3994 3.0316C22.1633 3.0316 26.2655 5.23838 30.6245 9.25866C28.7509 11.2251 26.8828 13.4565 25.1075 15.9282C22.0841 16.2477 19.2246 16.7421 16.6054 17.3975C16.2996 16.0593 16.0729 14.7647 15.9117 13.5193C15.2836 8.41746 16.0592 4.45181 17.8618 3.39484C18.3807 3.14904 18.9542 3.04525 19.3994 3.0316ZM32.7329 11.3617C33.9756 12.6398 35.2183 14.071 36.4473 15.6332C35.2456 15.5786 34.0166 15.5404 32.7739 15.5404C31.5176 15.5404 30.2749 15.5677 29.0595 15.6332C30.2612 14.071 31.5039 12.6426 32.7329 11.3617ZM32.7739 18.5337C34.795 18.5337 36.8078 18.6266 38.7879 18.7877C39.8968 20.3773 40.9783 22.0733 42.0189 23.8677C43.0349 25.6156 43.958 27.3909 44.7992 29.1825C43.958 30.9715 43.0349 32.7604 42.0325 34.5083C40.9947 36.3109 39.9213 38.0261 38.8098 39.6156C36.8215 39.7877 34.8059 39.8833 32.7739 39.8833C30.7528 39.8833 28.74 39.7877 26.7599 39.6293C25.651 38.0397 24.5695 36.3409 23.5289 34.5493C22.5129 32.8013 21.5898 31.0261 20.7486 29.2344C21.5761 27.4401 22.5129 25.6484 23.5153 23.8977C24.5531 22.0952 25.6265 20.3854 26.738 18.7959C28.7263 18.6211 30.7419 18.5282 32.7739 18.5282V18.5337ZM22.8461 19.2274C22.1907 20.2571 21.5352 21.3113 20.9234 22.3956C20.3089 23.4607 19.7353 24.5314 19.1891 25.602C18.4654 23.8103 17.8508 22.0241 17.3429 20.2844C19.0908 19.8747 20.9343 19.5087 22.8461 19.2274ZM42.6743 19.2274C44.5725 19.5087 46.4024 19.8556 48.153 20.2844C47.6614 22.0105 47.0469 23.7857 46.3505 25.5637C45.8043 24.4986 45.2307 23.4252 44.6025 22.3573C43.988 21.2867 43.3326 20.2434 42.6771 19.2274H42.6743ZM51.0399 21.071C52.3618 21.4806 53.6181 21.9368 54.7952 22.4311C59.5256 24.4522 62.5845 27.0959 62.5845 29.1935C62.5708 31.291 59.5119 33.9457 54.7816 35.9531C53.6345 36.4447 52.3781 36.8872 51.0808 37.2996C50.3161 34.6831 49.3165 31.9574 48.0766 29.1607C49.3056 26.3831 50.2888 23.671 51.0399 21.0655V21.071ZM14.456 21.0819C15.2153 23.7038 16.2176 26.4268 17.4603 29.2208C16.2313 31.9984 15.2426 34.7104 14.4943 37.316C13.1724 36.9063 11.916 36.4474 10.7526 35.9504C6.0222 33.9375 2.96331 31.291 2.96331 29.1935C2.96331 27.0959 6.0222 24.4358 10.7526 22.4311C11.8997 21.9395 13.156 21.497 14.456 21.0819ZM46.3505 32.7713C47.0742 34.5657 47.6887 36.3546 48.1967 38.0916C46.4488 38.5204 44.6025 38.8837 42.6907 39.1568C43.3462 38.1326 44.0017 37.0756 44.6162 35.9941C45.2307 34.9289 45.8015 33.8419 46.3505 32.7713ZM19.1891 32.8259C19.7353 33.8965 20.3089 34.9644 20.9371 36.035C21.5652 37.1002 22.207 38.1435 22.8625 39.1568C20.9644 38.8782 19.1345 38.5286 17.3838 38.1025C17.8754 36.3819 18.4927 34.6012 19.1864 32.8232L19.1891 32.8259ZM48.9424 40.9839C49.2482 42.3304 49.4886 43.6277 49.6361 44.8704C50.2642 49.9722 49.4886 53.9379 47.686 54.9976C47.2845 55.2434 46.7629 55.3471 46.1484 55.3471C43.3844 55.3471 39.2822 53.1431 34.9233 49.1201C36.7969 47.1536 38.665 44.925 40.4403 42.456C43.4636 42.1337 46.3232 41.6394 48.9424 40.9839ZM16.6328 41.0112C19.2547 41.6503 22.1115 42.1447 25.1185 42.4642C26.921 44.9359 28.7919 47.1809 30.6764 49.1447C26.3202 53.195 22.2316 55.4127 19.4513 55.4127C18.8505 55.399 18.3425 55.2761 17.941 55.0522C16.122 54.0143 15.3327 50.0432 15.9472 44.9387C16.0947 43.6823 16.3378 42.3604 16.6328 41.0112ZM29.0868 42.7592C30.2885 42.8138 31.5176 42.852 32.7602 42.852C34.0166 42.852 35.2593 42.8247 36.4746 42.7592C35.2729 44.3214 34.0302 45.7498 32.8012 47.0335C31.5585 45.7498 30.3159 44.3214 29.0868 42.7592Z" fill="white"/>
</svg>
