<svg width="66" height="66" viewBox="0 0 66 66" fill="none" xmlns="http://www.w3.org/2000/svg">
<path d="M32.7739 0.0958862C50.8733 0.0958862 65.5478 14.7704 65.5478 32.8699C65.5478 50.9693 50.8733 65.6438 32.7739 65.6438C14.6745 65.6438 0 50.9693 0 32.8699C0 14.7704 14.6745 0.0958862 32.7739 0.0958862ZM26.2601 43.7891C26.738 45.5507 26.6861 47.1975 26.1945 48.6833L26.017 49.1749C25.9515 49.3415 25.875 49.5026 25.804 49.6556C25.4216 50.4476 24.9136 51.185 24.2882 51.8678C22.3818 53.9408 19.7217 54.7274 18.5801 54.0664C17.351 53.3509 17.9628 50.4203 20.1751 48.0852C22.5539 45.578 25.9651 43.9638 25.9651 43.9638V43.9557L26.2601 43.7891ZM53.3286 14.1259C51.8483 8.3003 42.1937 6.38576 33.0579 9.63311C27.6257 11.564 21.74 14.5984 17.5095 18.5558C12.4759 23.2562 11.6757 27.3529 12.0062 29.0653C13.1724 35.104 21.4478 39.0532 24.8508 41.9838V42.0001C23.8485 42.4917 16.5044 46.1761 14.7838 49.9888C12.9402 54.0036 15.0705 56.8741 16.4634 57.24C20.765 58.4308 25.1895 56.2568 27.5656 52.7363C29.8598 49.2923 29.6576 44.8679 28.669 42.6966C30.0236 42.3279 31.6186 42.164 33.667 42.4125C39.4051 43.068 40.5522 46.6732 40.3037 48.148C40.0579 49.6201 38.8753 50.4804 38.4629 50.7262C38.0532 50.9747 37.9303 51.0539 37.9686 51.2206C38.0095 51.4664 38.2171 51.4664 38.5421 51.4254C38.9927 51.3435 41.5354 50.1964 41.6584 47.4078C41.7813 43.8846 38.4192 39.9545 32.4407 40.0337C29.9827 40.0774 28.4232 40.2822 27.3198 40.7329C27.2378 40.61 27.1532 40.528 27.033 40.4461C23.3459 36.4723 16.5044 33.6865 16.7912 28.4017C16.8731 26.4762 17.5695 21.399 29.9007 15.2538C40.0197 10.2121 48.093 11.6077 49.4859 14.6803C51.4878 19.0611 45.1815 27.2163 34.6529 28.4017C30.6381 28.8523 28.5488 27.2983 28.0135 26.722C27.4427 26.1075 27.3607 26.0665 27.1559 26.1922C26.8282 26.356 27.033 26.8886 27.1559 27.2163C27.4836 28.0357 28.7536 29.4696 30.9686 30.207C32.8913 30.8215 37.6053 31.1875 43.2588 28.9779C49.606 26.5226 54.5631 19.6783 53.1292 13.9429L53.3286 14.1259Z" fill="white"/>
</svg>
