<svg width="58" height="36" viewBox="0 0 58 36" fill="none" xmlns="http://www.w3.org/2000/svg">
<path d="M29.0024 0.599976C21.2691 0.599976 16.4358 4.46664 14.5024 12.2C17.4024 8.33331 20.7858 6.88331 24.6524 7.84998C26.8589 8.40098 28.4345 10.0008 30.1818 11.7746C33.0262 14.6601 36.3153 18 43.5024 18C51.2358 18 56.0691 14.1333 58.0024 6.39997C55.1024 10.2666 51.7191 11.7166 47.8524 10.75C45.646 10.199 44.0704 8.59914 42.3231 6.82531C39.4811 3.93981 36.192 0.599976 29.0024 0.599976ZM14.5024 18C6.76911 18 1.93577 21.8666 0.00244141 29.6C2.90244 25.7333 6.28578 24.2833 10.1524 25.25C12.3589 25.801 13.9345 27.4008 15.6818 29.1746C18.5262 32.0601 21.8153 35.4 29.0024 35.4C36.7358 35.4 41.5691 31.5333 43.5024 23.8C40.6024 27.6666 37.2191 29.1166 33.3524 28.15C31.146 27.599 29.5704 25.9991 27.8231 24.2253C24.9811 21.3398 21.692 18 14.5024 18Z" fill="white"/>
</svg>
